<?xml version="1.0" encoding="UTF-8"?>
<svg version="1.1" xmlns="http://www.w3.org/2000/svg" width="468" height="322">
<path d="M0 0 C13.51827699 6.80667111 25.26014832 20.47927422 33.83984375 32.7109375 C34.35546875 32.0509375 34.87109375 31.3909375 35.40234375 30.7109375 C37.83984375 28.7109375 37.83984375 28.7109375 41.27734375 28.2734375 C45.18705525 28.75357751 46.83968738 29.18449003 49.83984375 31.7109375 C52.90233665 35.70775027 55.36055922 39.5985692 55.83984375 44.7109375 C51.91855853 46.0167709 49.86153284 45.09124106 46.15625 43.31054688 C45.47433594 42.96830078 44.79242188 42.62605469 44.08984375 42.2734375 C43.04376953 41.76586914 43.04376953 41.76586914 41.9765625 41.24804688 C40.25916254 40.41287292 38.54878637 39.56328326 36.83984375 38.7109375 C37.66229969 42.79625144 38.50342585 46.47060194 41.6328125 49.375 C43.81739632 50.7883167 46.02613078 52.02124869 48.33984375 53.2109375 C49.49806641 53.85289063 49.49806641 53.85289063 50.6796875 54.5078125 C53.71343058 56.16927318 56.55160107 57.61485661 59.83984375 58.7109375 C60.03320312 58.03546875 60.2265625 57.36 60.42578125 56.6640625 C60.81636719 55.32601562 60.81636719 55.32601562 61.21484375 53.9609375 C61.59769531 52.63835938 61.59769531 52.63835938 61.98828125 51.2890625 C62.76083715 48.95013178 63.67610051 46.87651188 64.83984375 44.7109375 C69.58984375 45.4609375 69.58984375 45.4609375 71.83984375 47.7109375 C71.88671875 49.8125 71.88671875 49.8125 71.58984375 52.3359375 C71.5021875 53.15320312 71.41453125 53.97046875 71.32421875 54.8125 C70.70592937 58.51226387 69.78419055 62.08062071 68.83984375 65.7109375 C69.69964844 66.30519531 70.55945313 66.89945312 71.4453125 67.51171875 C77.84687712 71.98187114 84.09799886 76.57580248 90.08984375 81.5859375 C90.63793701 82.03751221 91.18603027 82.48908691 91.75073242 82.9543457 C96.88587349 87.32047562 96.88587349 87.32047562 97.83984375 90.7109375 C97.48986905 98.05068461 92.98016852 101.9258679 87.83984375 106.7109375 C79.47593638 113.36632975 70.19376325 118.54783452 60.81884766 123.62451172 C58.9368325 124.657693 57.08055333 125.72612367 55.2265625 126.80859375 C48.097258 130.89852207 40.88531078 133.96650592 33.08984375 136.5859375 C32.2388208 136.87227051 31.38779785 137.15860352 30.51098633 137.45361328 C19.20016233 141.08311648 8.57676863 142.04213887 -3.28515625 141.9609375 C-3.96426056 141.95916504 -4.64336487 141.95739258 -5.3430481 141.95556641 C-15.73217808 141.92372749 -25.90121165 141.418221 -36.16015625 139.7109375 C-33.84955871 140.50853507 -31.53690192 141.29904977 -29.22265625 142.0859375 C-28.58263672 142.30765625 -27.94261719 142.529375 -27.28320312 142.7578125 C-1.35935606 151.52806922 23.85857443 146.34323135 47.83984375 134.7109375 C49.36372845 133.90417501 50.88529937 133.09299021 52.40234375 132.2734375 C56.36995201 130.4699792 58.57184619 130.35527104 62.83984375 130.7109375 C62.94639953 137.15164221 62.80189463 143.33735039 61.83984375 149.7109375 C62.43152344 149.90429688 63.02320313 150.09765625 63.6328125 150.296875 C64.42300781 150.55726563 65.21320313 150.81765625 66.02734375 151.0859375 C66.85105469 151.35664063 67.67476563 151.62734375 68.5234375 151.90625 C70.83984375 152.7109375 70.83984375 152.7109375 73.58984375 153.9609375 C79.52895215 155.9406403 85.95823134 151.47834201 91.1862793 148.89477539 C94.51386128 147.25701156 97.65178353 145.76997966 101.19921875 144.65625 C110.61518798 141.44286368 113.67189882 133.84765196 117.92114258 125.46459961 C120.56472156 119.97011102 122.63796754 114.60899317 124.08178711 108.68066406 C124.83984375 106.7109375 124.83984375 106.7109375 127.83984375 104.7109375 C131.45534767 104.24938381 133.17620469 104.25686867 136.21484375 106.3359375 C138.30364216 109.38879671 138.38052937 111.08061974 137.83984375 114.7109375 C136.71484375 116.5234375 136.71484375 116.5234375 134.83984375 117.7109375 C131.65234375 118.3984375 131.65234375 118.3984375 128.83984375 118.7109375 C128.72769531 119.40574219 128.61554688 120.10054688 128.5 120.81640625 C127.7553826 124.08126714 126.59584287 126.94693955 125.27734375 130.0234375 C124.82230469 131.09207031 124.36726563 132.16070312 123.8984375 133.26171875 C123.54910156 134.06996094 123.19976562 134.87820312 122.83984375 135.7109375 C123.91621094 135.67613281 124.99257813 135.64132813 126.1015625 135.60546875 C136.39168291 135.37480161 146.75989943 135.37292885 156.02734375 140.4609375 C159.26610093 141.90038514 160.53192919 141.6140782 163.96484375 141.0859375 C166.5625 140.734375 166.5625 140.734375 168.83984375 140.7109375 C172.29097957 143.40450692 172.74797995 145.24396319 173.58984375 149.5234375 C173.67234375 150.5753125 173.75484375 151.6271875 173.83984375 152.7109375 C171.52499951 154.8477168 170.11300849 155.66936895 166.96484375 156.1484375 C163.04911796 155.60023589 160.88974458 154.17990484 157.83984375 151.7109375 C157.83984375 151.0509375 157.83984375 150.3909375 157.83984375 149.7109375 C156.72609375 149.5871875 155.61234375 149.4634375 154.46484375 149.3359375 C149.53523384 148.72636208 144.6974012 147.73620065 139.83984375 146.7109375 C140.52949219 147.1234375 141.21914063 147.5359375 141.9296875 147.9609375 C146.85825743 150.98974317 151.26323653 153.96592558 155.40234375 158.0234375 C159.30250642 161.68467128 162.38414123 162.72729221 167.67578125 163.1640625 C169.83984375 163.7109375 169.83984375 163.7109375 171.62890625 165.53515625 C172.83984375 167.7109375 172.83984375 167.7109375 172.83984375 171.2734375 C171.83984375 174.7109375 171.83984375 174.7109375 169.58984375 176.6484375 C166.76615 177.73941008 164.83493603 177.9676597 161.83984375 177.7109375 C162.16984375 178.3709375 162.49984375 179.0309375 162.83984375 179.7109375 C163.08984375 182.7109375 163.08984375 182.7109375 162.83984375 185.7109375 C159.83984375 187.7109375 159.83984375 187.7109375 156.40234375 187.6484375 C152.83984375 186.7109375 152.83984375 186.7109375 150.52734375 184.7109375 C148.98577172 181.97036501 148.49926574 180.4026155 147.96484375 177.3984375 C145.7690114 165.96496562 134.14241634 157.46384844 125.33203125 150.86328125 C121.92695542 149.28883396 120.39726753 149.53850335 116.83984375 150.7109375 C114.38649864 152.32993917 112.25642191 154.23046247 110.08984375 156.2109375 C109.47568604 156.75411621 108.86152832 157.29729492 108.22875977 157.85693359 C105.51625144 160.26372236 102.84093786 162.70993762 100.1640625 165.15625 C95.5981488 169.32610244 90.96193028 173.38752818 86.15234375 177.2734375 C85.62954834 177.71574707 85.10675293 178.15805664 84.56811523 178.61376953 C80.55163124 181.78577498 77.86698488 182.23174274 72.83984375 181.7109375 C70.28746237 181.26887557 67.74474584 180.76741291 65.21484375 180.2109375 C60.99777675 179.28711755 57.16358356 178.51214487 52.83984375 178.7109375 C52.50984375 179.7009375 52.17984375 180.6909375 51.83984375 181.7109375 C52.56171875 181.6284375 53.28359375 181.5459375 54.02734375 181.4609375 C57.78452231 181.79490893 59.19820179 183.06929554 61.83984375 185.7109375 C63.88778594 189.41673765 64.41508118 192.51992197 63.83984375 196.7109375 C58.5172185 210.47839834 40.31066296 219.54265111 28.01953125 226.25 C22.33038153 229.37811769 18.11409822 233.28316852 13.67333984 237.95410156 C8.58893773 243.19968069 2.85338529 247.33868325 -3.10546875 251.53125 C-6.10163601 253.54249966 -6.10163601 253.54249966 -8.16015625 255.7109375 C-7.58160889 255.92709717 -7.00306152 256.14325684 -6.40698242 256.3659668 C12.59167014 263.48266433 12.59167014 263.48266433 19.15234375 266.5859375 C23.35086652 268.56485906 27.26597043 269.87932417 31.83984375 270.7109375 C32.49984375 270.3809375 33.15984375 270.0509375 33.83984375 269.7109375 C37.21484375 269.3359375 37.21484375 269.3359375 40.83984375 269.7109375 C43.33984375 271.8359375 43.33984375 271.8359375 44.83984375 274.7109375 C44.69368419 278.43800623 44.49772668 280.05305457 41.83984375 282.7109375 C38.58984375 283.1484375 38.58984375 283.1484375 34.83984375 282.7109375 C33.96585937 281.92460937 33.091875 281.13828125 32.19140625 280.328125 C28.39196749 276.98278583 24.34095297 276.29666815 19.46484375 275.3984375 C18.21767578 275.14610352 18.21767578 275.14610352 16.9453125 274.88867188 C14.91333858 274.47994149 12.87696926 274.09316545 10.83984375 273.7109375 C12.46429994 274.69100609 14.08942636 275.66996386 15.71484375 276.6484375 C16.61976563 277.19371094 17.5246875 277.73898437 18.45703125 278.30078125 C21.78975073 280.50199571 21.78975073 280.50199571 25.58984375 280.0234375 C29.92776738 279.60632946 31.50029671 281.05447963 34.83984375 283.7109375 C36.83984375 285.7109375 36.83984375 285.7109375 37.08984375 289.2109375 C36.83984375 292.7109375 36.83984375 292.7109375 34.83984375 294.7109375 C36.04640625 295.8865625 36.04640625 295.8865625 37.27734375 297.0859375 C40.10980971 299.98748799 40.75273168 300.68737062 41.08984375 304.6484375 C40.83984375 307.7109375 40.83984375 307.7109375 39.71484375 309.5859375 C36.96965704 311.23304952 35.01232087 310.95730669 31.83984375 310.7109375 C23.81122217 307.50567266 17.20824386 302.55547925 10.6640625 297.01953125 C1.66129749 289.66042458 -8.30915125 284.46323676 -18.72265625 279.3984375 C-20.26493896 278.64276489 -20.26493896 278.64276489 -21.83837891 277.87182617 C-33.11117753 272.51460714 -42.09735813 268.75409772 -54.63769531 271.10302734 C-60.42369612 272.10158168 -66.17722333 272.05081854 -72.03515625 272.0234375 C-73.90929199 272.01715332 -73.90929199 272.01715332 -75.82128906 272.01074219 C-91.01834081 271.82941154 -105.94885243 270.06530376 -120.78515625 266.7734375 C-121.45385742 266.6280957 -122.12255859 266.48275391 -122.81152344 266.33300781 C-128.80891256 264.86546252 -132.83913827 262.03195548 -137.16015625 257.7109375 C-141.12015625 260.0209375 -145.08015625 262.3309375 -149.16015625 264.7109375 C-147.34773437 264.95328125 -145.5353125 265.195625 -143.66796875 265.4453125 C-120.87950015 268.55560723 -120.87950015 268.55560723 -110.72265625 270.8359375 C-110.0157666 270.99416992 -109.30887695 271.15240234 -108.58056641 271.31542969 C-105.72930477 271.98656307 -103.04409674 272.75761708 -100.32421875 273.8515625 C-97.49739807 274.97412667 -96.1255584 274.36991576 -93.16015625 273.7109375 C-89.74662477 273.30509418 -86.55608481 273.10493005 -83.16015625 273.7109375 C-80.27859396 276.59249979 -79.22920223 278.26097191 -79.03515625 282.3359375 C-80.62836615 285.69938062 -82.99329122 286.89167461 -86.16015625 288.7109375 C-85.31453125 288.3809375 -84.46890625 288.0509375 -83.59765625 287.7109375 C-79.81082702 286.60931445 -77.07791958 286.20307929 -73.16015625 286.7109375 C-69.98287531 289.3865425 -68.93395984 291.83989721 -68.28515625 295.8359375 C-68.16015625 299.7109375 -68.16015625 299.7109375 -70.16015625 302.7109375 C-70.82015625 302.7109375 -71.48015625 302.7109375 -72.16015625 302.7109375 C-72.05703125 303.9484375 -71.95390625 305.1859375 -71.84765625 306.4609375 C-71.85963691 309.83948223 -71.96767038 310.4776213 -74.22265625 313.2109375 C-77.92634431 315.10218247 -80.0440807 315.28863231 -84.16015625 314.7109375 C-85.05428223 314.07518799 -85.9484082 313.43943848 -86.86962891 312.78442383 C-90.64608174 310.40473738 -94.04137332 309.67809943 -98.37109375 309.03515625 C-99.56030678 308.83909286 -99.56030678 308.83909286 -100.77354431 308.6390686 C-102.47482428 308.35929095 -104.17711825 308.08562245 -105.88027954 307.8175354 C-110.39713723 307.10450584 -114.90548885 306.34153805 -119.4140625 305.578125 C-120.32349106 305.42481216 -121.23291962 305.27149933 -122.16990662 305.11354065 C-134.47966868 303.01119911 -146.6304843 300.22623328 -158.80371094 297.45703125 C-162.74648725 296.58060381 -166.70197561 295.78768983 -170.66455078 295.00683594 C-187.03955484 291.75352387 -187.03955484 291.75352387 -192.66015625 286.2734375 C-194.1899489 283.66004172 -194.64776345 281.66212294 -195.16015625 278.7109375 C-196.28164062 279.34322266 -196.28164062 279.34322266 -197.42578125 279.98828125 C-198.410625 280.53613281 -199.39546875 281.08398438 -200.41015625 281.6484375 C-201.87195313 282.46634766 -201.87195313 282.46634766 -203.36328125 283.30078125 C-208.53824006 285.90994344 -213.42706542 286.26476023 -219.16015625 285.7109375 C-222.49684116 284.40527819 -223.76675118 283.29195179 -225.765625 280.33984375 C-227.76637857 275.133401 -227.64869564 270.30675555 -227.59765625 264.7734375 C-227.59008301 263.62262695 -227.58250977 262.47181641 -227.57470703 261.28613281 C-226.99934402 230.70369882 -217.56302512 199.08835044 -202.16015625 172.7109375 C-209.40115462 173.31435403 -216.14703536 174.84347839 -223.16015625 176.7109375 C-223.89621094 176.824375 -224.63226563 176.9378125 -225.390625 177.0546875 C-227.88256125 177.97884929 -228.04508812 179.34374351 -229.16015625 181.7109375 C-229.94187769 183.03381212 -230.73963184 184.34730646 -231.55078125 185.65234375 C-232.24046997 186.76826904 -232.24046997 186.76826904 -232.9440918 187.90673828 C-233.42789307 188.68774902 -233.91169434 189.46875977 -234.41015625 190.2734375 C-238.54271474 196.98267226 -242.51242418 203.72329885 -246.16015625 210.7109375 C-245.50015625 211.7009375 -244.84015625 212.6909375 -244.16015625 213.7109375 C-243.78515625 216.7109375 -243.78515625 216.7109375 -244.16015625 219.7109375 C-245.72265625 221.6484375 -245.72265625 221.6484375 -248.16015625 222.7109375 C-251.61129077 222.58984506 -254.12878404 222.34306885 -257.09765625 220.5234375 C-258.69411985 217.80005843 -258.54646497 215.80140729 -258.16015625 212.7109375 C-257.44279297 212.06705078 -257.44279297 212.06705078 -256.7109375 211.41015625 C-254.48890938 208.9754403 -254.42369127 206.75007263 -253.97265625 203.5234375 C-253.81410156 202.43675781 -253.65554687 201.35007813 -253.4921875 200.23046875 C-253.38261719 199.39902344 -253.27304688 198.56757813 -253.16015625 197.7109375 C-257.69795309 202.27648845 -259.5280385 205.1369129 -260.16015625 211.7109375 C-261.22265625 213.6484375 -261.22265625 213.6484375 -263.16015625 214.7109375 C-266.01249493 215.1259294 -268.22643138 214.99033987 -271.16015625 214.7109375 C-273.16015625 211.7109375 -273.16015625 211.7109375 -273.03515625 208.7734375 C-272.16015625 205.7109375 -272.16015625 205.7109375 -270.40234375 204.06640625 C-267.26197285 200.7673755 -265.46527339 196.99753566 -263.41015625 192.9609375 C-262.99894531 192.16816406 -262.58773438 191.37539062 -262.1640625 190.55859375 C-261.15597391 188.61274834 -260.15495697 186.66360012 -259.16015625 184.7109375 C-260.94873047 185.1440625 -260.94873047 185.1440625 -262.7734375 185.5859375 C-264.33980137 185.96111448 -265.90620997 186.33610476 -267.47265625 186.7109375 C-268.25833984 186.90171875 -269.04402344 187.0925 -269.85351562 187.2890625 C-270.61083984 187.46953125 -271.36816406 187.65 -272.1484375 187.8359375 C-272.84493408 188.00351563 -273.54143066 188.17109375 -274.2590332 188.34375 C-276.16015625 188.7109375 -276.16015625 188.7109375 -279.16015625 188.7109375 C-279.24265625 189.3090625 -279.32515625 189.9071875 -279.41015625 190.5234375 C-280.42149836 193.47318531 -281.40427772 194.26047512 -284.16015625 195.7109375 C-287.58759854 196.0717209 -290.04137669 196.27032728 -293.16015625 194.7109375 C-294.83768294 191.35588413 -293.81378852 188.33562555 -293.16015625 184.7109375 C-290.65522964 183.67949713 -288.20821173 182.72441648 -285.59765625 181.9921875 C-280.83661056 180.21761592 -276.64564127 177.67333373 -272.28515625 175.0859375 C-271.40601563 174.5703125 -270.526875 174.0546875 -269.62109375 173.5234375 C-267.46445065 172.25758177 -265.31097637 170.98665343 -263.16015625 169.7109375 C-263.64742188 169.2778125 -264.1346875 168.8446875 -264.63671875 168.3984375 C-266.16015625 166.7109375 -266.16015625 166.7109375 -266.53515625 163.7109375 C-266.16015625 160.7109375 -266.16015625 160.7109375 -265.09765625 158.8359375 C-262.1218055 157.10802416 -259.52421256 157.46627886 -256.16015625 157.7109375 C-255.50015625 158.0409375 -254.84015625 158.3709375 -254.16015625 158.7109375 C-254.16015625 159.3709375 -254.16015625 160.0309375 -254.16015625 160.7109375 C-241.74091772 160.73537108 -231.9207198 160.45215556 -221.16015625 153.7109375 C-218.53739707 152.2091792 -215.88475948 150.76659994 -213.22265625 149.3359375 C-212.16655151 148.764198 -212.16655151 148.764198 -211.08911133 148.1809082 C-204.4359166 144.67251143 -197.53556403 141.9989674 -190.46704102 139.44970703 C-178.82508366 135.311665 -178.82508366 135.311665 -170.28515625 126.6484375 C-169.44163781 125.48397058 -168.5938802 124.32256417 -167.7421875 123.1640625 C-167.31760254 122.58462891 -166.89301758 122.00519531 -166.45556641 121.40820312 C-163.70071554 117.79875661 -160.55961459 114.53033483 -157.47265625 111.20703125 C-155.42357706 108.99527178 -153.43816144 106.74671474 -151.47265625 104.4609375 C-145.26353336 97.33785494 -138.40147197 90.08302508 -130.421875 84.94921875 C-127.81989824 82.8470041 -127.81989824 82.8470041 -127.8125 79.390625 C-127.90660156 78.13507813 -128.00070313 76.87953125 -128.09765625 75.5859375 C-128.57472781 63.80113397 -123.91437113 55.45681041 -116.16015625 46.7109375 C-111.8507936 42.9606273 -107.39116155 40.72676967 -102.03515625 38.8359375 C-97.39254245 37.09139704 -95.16466944 34.88740131 -92.12109375 31.05078125 C-68.72864108 3.13827299 -34.27024922 -13.97921167 0 0 Z M-33.91015625 19.8359375 C-34.47565186 20.2695459 -35.04114746 20.7031543 -35.6237793 21.14990234 C-42.70925626 26.73404622 -48.91939469 33.21755141 -55.16015625 39.7109375 C-50.33941511 42.12130807 -42.20792443 38.16434 -37.28515625 36.671875 C-30.97902928 34.50442578 -27.80220432 31.16310528 -24.16015625 25.7109375 C-21.24250625 23.7658375 -19.5347834 23.25817433 -16.16015625 22.7109375 C-18.95211636 19.42627854 -22.39212442 17.69771792 -26.16015625 15.7109375 C-29.37389694 15.7109375 -31.45374976 17.94461643 -33.91015625 19.8359375 Z M-16.16015625 22.7109375 C-15.17015625 24.1959375 -15.17015625 24.1959375 -14.16015625 25.7109375 C-14.03515625 28.8984375 -14.03515625 28.8984375 -14.16015625 31.7109375 C-11.52015625 31.3809375 -8.88015625 31.0509375 -6.16015625 30.7109375 C-10.18224233 25.41904201 -10.18224233 25.41904201 -16.16015625 22.7109375 Z M152.83984375 168.7109375 C153.16984375 170.6909375 153.49984375 172.6709375 153.83984375 174.7109375 C156.14984375 175.3709375 158.45984375 176.0309375 160.83984375 176.7109375 C157.81247402 171.60480559 157.81247402 171.60480559 152.83984375 168.7109375 Z " fill="#669860" transform="translate(294.16015625,7.2890625)"/>
<path d="M0 0 C13.51827699 6.80667111 25.26014832 20.47927422 33.83984375 32.7109375 C34.35546875 32.0509375 34.87109375 31.3909375 35.40234375 30.7109375 C37.83984375 28.7109375 37.83984375 28.7109375 41.27734375 28.2734375 C45.18705525 28.75357751 46.83968738 29.18449003 49.83984375 31.7109375 C52.90233665 35.70775027 55.36055922 39.5985692 55.83984375 44.7109375 C51.91855853 46.0167709 49.86153284 45.09124106 46.15625 43.31054688 C45.47433594 42.96830078 44.79242188 42.62605469 44.08984375 42.2734375 C43.04376953 41.76586914 43.04376953 41.76586914 41.9765625 41.24804688 C40.25916254 40.41287292 38.54878637 39.56328326 36.83984375 38.7109375 C37.66229969 42.79625144 38.50342585 46.47060194 41.6328125 49.375 C43.81739632 50.7883167 46.02613078 52.02124869 48.33984375 53.2109375 C49.49806641 53.85289063 49.49806641 53.85289063 50.6796875 54.5078125 C53.71343058 56.16927318 56.55160107 57.61485661 59.83984375 58.7109375 C60.03320312 58.03546875 60.2265625 57.36 60.42578125 56.6640625 C60.81636719 55.32601562 60.81636719 55.32601562 61.21484375 53.9609375 C61.59769531 52.63835938 61.59769531 52.63835938 61.98828125 51.2890625 C62.76083715 48.95013178 63.67610051 46.87651188 64.83984375 44.7109375 C69.58984375 45.4609375 69.58984375 45.4609375 71.83984375 47.7109375 C71.88671875 49.8125 71.88671875 49.8125 71.58984375 52.3359375 C71.5021875 53.15320312 71.41453125 53.97046875 71.32421875 54.8125 C70.70592937 58.51226387 69.78419055 62.08062071 68.83984375 65.7109375 C69.69964844 66.30519531 70.55945313 66.89945312 71.4453125 67.51171875 C77.84687712 71.98187114 84.09799886 76.57580248 90.08984375 81.5859375 C90.63793701 82.03751221 91.18603027 82.48908691 91.75073242 82.9543457 C96.88587349 87.32047562 96.88587349 87.32047562 97.83984375 90.7109375 C97.48986905 98.05068461 92.98016852 101.9258679 87.83984375 106.7109375 C79.47593638 113.36632975 70.19376325 118.54783452 60.81884766 123.62451172 C58.9368325 124.657693 57.08055333 125.72612367 55.2265625 126.80859375 C48.097258 130.89852207 40.88531078 133.96650592 33.08984375 136.5859375 C32.2388208 136.87227051 31.38779785 137.15860352 30.51098633 137.45361328 C19.20016233 141.08311648 8.57676863 142.04213887 -3.28515625 141.9609375 C-3.96426056 141.95916504 -4.64336487 141.95739258 -5.3430481 141.95556641 C-15.73217808 141.92372749 -25.90121165 141.418221 -36.16015625 139.7109375 C-33.84955871 140.50853507 -31.53690192 141.29904977 -29.22265625 142.0859375 C-28.58263672 142.30765625 -27.94261719 142.529375 -27.28320312 142.7578125 C-1.35935606 151.52806922 23.85857443 146.34323135 47.83984375 134.7109375 C49.36372845 133.90417501 50.88529937 133.09299021 52.40234375 132.2734375 C56.36995201 130.4699792 58.57184619 130.35527104 62.83984375 130.7109375 C62.94639953 137.15164221 62.80189463 143.33735039 61.83984375 149.7109375 C62.43152344 149.90429688 63.02320313 150.09765625 63.6328125 150.296875 C64.42300781 150.55726563 65.21320313 150.81765625 66.02734375 151.0859375 C66.85105469 151.35664063 67.67476563 151.62734375 68.5234375 151.90625 C70.83984375 152.7109375 70.83984375 152.7109375 73.58984375 153.9609375 C79.52895215 155.9406403 85.95823134 151.47834201 91.1862793 148.89477539 C94.51386128 147.25701156 97.65178353 145.76997966 101.19921875 144.65625 C110.61518798 141.44286368 113.67189882 133.84765196 117.92114258 125.46459961 C120.56472156 119.97011102 122.63796754 114.60899317 124.08178711 108.68066406 C124.83984375 106.7109375 124.83984375 106.7109375 127.83984375 104.7109375 C131.45534767 104.24938381 133.17620469 104.25686867 136.21484375 106.3359375 C138.30364216 109.38879671 138.38052937 111.08061974 137.83984375 114.7109375 C136.71484375 116.5234375 136.71484375 116.5234375 134.83984375 117.7109375 C131.65234375 118.3984375 131.65234375 118.3984375 128.83984375 118.7109375 C128.72769531 119.40574219 128.61554688 120.10054688 128.5 120.81640625 C127.7553826 124.08126714 126.59584287 126.94693955 125.27734375 130.0234375 C124.82230469 131.09207031 124.36726563 132.16070312 123.8984375 133.26171875 C123.54910156 134.06996094 123.19976562 134.87820312 122.83984375 135.7109375 C123.91621094 135.67613281 124.99257813 135.64132813 126.1015625 135.60546875 C136.39168291 135.37480161 146.75989943 135.37292885 156.02734375 140.4609375 C159.26610093 141.90038514 160.53192919 141.6140782 163.96484375 141.0859375 C166.5625 140.734375 166.5625 140.734375 168.83984375 140.7109375 C172.29097957 143.40450692 172.74797995 145.24396319 173.58984375 149.5234375 C173.67234375 150.5753125 173.75484375 151.6271875 173.83984375 152.7109375 C171.52499951 154.8477168 170.11300849 155.66936895 166.96484375 156.1484375 C163.04911796 155.60023589 160.88974458 154.17990484 157.83984375 151.7109375 C157.83984375 151.0509375 157.83984375 150.3909375 157.83984375 149.7109375 C156.72609375 149.5871875 155.61234375 149.4634375 154.46484375 149.3359375 C149.53523384 148.72636208 144.6974012 147.73620065 139.83984375 146.7109375 C140.52949219 147.1234375 141.21914063 147.5359375 141.9296875 147.9609375 C146.85825743 150.98974317 151.26323653 153.96592558 155.40234375 158.0234375 C159.30250642 161.68467128 162.38414123 162.72729221 167.67578125 163.1640625 C169.83984375 163.7109375 169.83984375 163.7109375 171.62890625 165.53515625 C172.83984375 167.7109375 172.83984375 167.7109375 172.83984375 171.2734375 C171.83984375 174.7109375 171.83984375 174.7109375 169.58984375 176.6484375 C166.76615 177.73941008 164.83493603 177.9676597 161.83984375 177.7109375 C162.16984375 178.3709375 162.49984375 179.0309375 162.83984375 179.7109375 C163.08984375 182.7109375 163.08984375 182.7109375 162.83984375 185.7109375 C159.83984375 187.7109375 159.83984375 187.7109375 156.40234375 187.6484375 C152.83984375 186.7109375 152.83984375 186.7109375 150.52734375 184.7109375 C148.98577172 181.97036501 148.49926574 180.4026155 147.96484375 177.3984375 C145.7690114 165.96496562 134.14241634 157.46384844 125.33203125 150.86328125 C121.92695542 149.28883396 120.39726753 149.53850335 116.83984375 150.7109375 C114.38649864 152.32993917 112.25642191 154.23046247 110.08984375 156.2109375 C109.47568604 156.75411621 108.86152832 157.29729492 108.22875977 157.85693359 C105.51625144 160.26372236 102.84093786 162.70993762 100.1640625 165.15625 C95.5981488 169.32610244 90.96193028 173.38752818 86.15234375 177.2734375 C85.62954834 177.71574707 85.10675293 178.15805664 84.56811523 178.61376953 C80.55163124 181.78577498 77.86698488 182.23174274 72.83984375 181.7109375 C70.28746237 181.26887557 67.74474584 180.76741291 65.21484375 180.2109375 C60.99777675 179.28711755 57.16358356 178.51214487 52.83984375 178.7109375 C52.50984375 179.7009375 52.17984375 180.6909375 51.83984375 181.7109375 C52.56171875 181.6284375 53.28359375 181.5459375 54.02734375 181.4609375 C57.78452231 181.79490893 59.19820179 183.06929554 61.83984375 185.7109375 C63.88778594 189.41673765 64.41508118 192.51992197 63.83984375 196.7109375 C58.5172185 210.47839834 40.31066296 219.54265111 28.01953125 226.25 C22.33038153 229.37811769 18.11409822 233.28316852 13.67333984 237.95410156 C8.58893773 243.19968069 2.85338529 247.33868325 -3.10546875 251.53125 C-6.10163601 253.54249966 -6.10163601 253.54249966 -8.16015625 255.7109375 C-7.58160889 255.92709717 -7.00306152 256.14325684 -6.40698242 256.3659668 C12.59167014 263.48266433 12.59167014 263.48266433 19.15234375 266.5859375 C23.35086652 268.56485906 27.26597043 269.87932417 31.83984375 270.7109375 C32.49984375 270.3809375 33.15984375 270.0509375 33.83984375 269.7109375 C37.21484375 269.3359375 37.21484375 269.3359375 40.83984375 269.7109375 C43.33984375 271.8359375 43.33984375 271.8359375 44.83984375 274.7109375 C44.69368419 278.43800623 44.49772668 280.05305457 41.83984375 282.7109375 C38.58984375 283.1484375 38.58984375 283.1484375 34.83984375 282.7109375 C33.96585937 281.92460937 33.091875 281.13828125 32.19140625 280.328125 C28.39196749 276.98278583 24.34095297 276.29666815 19.46484375 275.3984375 C18.21767578 275.14610352 18.21767578 275.14610352 16.9453125 274.88867188 C14.91333858 274.47994149 12.87696926 274.09316545 10.83984375 273.7109375 C12.46429994 274.69100609 14.08942636 275.66996386 15.71484375 276.6484375 C16.61976563 277.19371094 17.5246875 277.73898437 18.45703125 278.30078125 C21.78975073 280.50199571 21.78975073 280.50199571 25.58984375 280.0234375 C29.92776738 279.60632946 31.50029671 281.05447963 34.83984375 283.7109375 C36.83984375 285.7109375 36.83984375 285.7109375 37.08984375 289.2109375 C36.83984375 292.7109375 36.83984375 292.7109375 34.83984375 294.7109375 C36.04640625 295.8865625 36.04640625 295.8865625 37.27734375 297.0859375 C40.10980971 299.98748799 40.75273168 300.68737062 41.08984375 304.6484375 C40.83984375 307.7109375 40.83984375 307.7109375 39.71484375 309.5859375 C36.96965704 311.23304952 35.01232087 310.95730669 31.83984375 310.7109375 C23.81122217 307.50567266 17.20824386 302.55547925 10.6640625 297.01953125 C1.66129749 289.66042458 -8.30915125 284.46323676 -18.72265625 279.3984375 C-20.26493896 278.64276489 -20.26493896 278.64276489 -21.83837891 277.87182617 C-33.11117753 272.51460714 -42.09735813 268.75409772 -54.63769531 271.10302734 C-60.42369612 272.10158168 -66.17722333 272.05081854 -72.03515625 272.0234375 C-73.90929199 272.01715332 -73.90929199 272.01715332 -75.82128906 272.01074219 C-91.01834081 271.82941154 -105.94885243 270.06530376 -120.78515625 266.7734375 C-121.45385742 266.6280957 -122.12255859 266.48275391 -122.81152344 266.33300781 C-128.80891256 264.86546252 -132.83913827 262.03195548 -137.16015625 257.7109375 C-141.12015625 260.0209375 -145.08015625 262.3309375 -149.16015625 264.7109375 C-147.34773437 264.95328125 -145.5353125 265.195625 -143.66796875 265.4453125 C-120.87950015 268.55560723 -120.87950015 268.55560723 -110.72265625 270.8359375 C-110.0157666 270.99416992 -109.30887695 271.15240234 -108.58056641 271.31542969 C-105.72930477 271.98656307 -103.04409674 272.75761708 -100.32421875 273.8515625 C-97.49739807 274.97412667 -96.1255584 274.36991576 -93.16015625 273.7109375 C-89.74662477 273.30509418 -86.55608481 273.10493005 -83.16015625 273.7109375 C-80.27859396 276.59249979 -79.22920223 278.26097191 -79.03515625 282.3359375 C-80.62836615 285.69938062 -82.99329122 286.89167461 -86.16015625 288.7109375 C-85.31453125 288.3809375 -84.46890625 288.0509375 -83.59765625 287.7109375 C-79.81082702 286.60931445 -77.07791958 286.20307929 -73.16015625 286.7109375 C-69.98287531 289.3865425 -68.93395984 291.83989721 -68.28515625 295.8359375 C-68.16015625 299.7109375 -68.16015625 299.7109375 -70.16015625 302.7109375 C-70.82015625 302.7109375 -71.48015625 302.7109375 -72.16015625 302.7109375 C-72.05703125 303.9484375 -71.95390625 305.1859375 -71.84765625 306.4609375 C-71.85963691 309.83948223 -71.96767038 310.4776213 -74.22265625 313.2109375 C-77.92634431 315.10218247 -80.0440807 315.28863231 -84.16015625 314.7109375 C-85.05428223 314.07518799 -85.9484082 313.43943848 -86.86962891 312.78442383 C-90.64608174 310.40473738 -94.04137332 309.67809943 -98.37109375 309.03515625 C-99.56030678 308.83909286 -99.56030678 308.83909286 -100.77354431 308.6390686 C-102.47482428 308.35929095 -104.17711825 308.08562245 -105.88027954 307.8175354 C-110.39713723 307.10450584 -114.90548885 306.34153805 -119.4140625 305.578125 C-120.32349106 305.42481216 -121.23291962 305.27149933 -122.16990662 305.11354065 C-134.47966868 303.01119911 -146.6304843 300.22623328 -158.80371094 297.45703125 C-162.74648725 296.58060381 -166.70197561 295.78768983 -170.66455078 295.00683594 C-187.03955484 291.75352387 -187.03955484 291.75352387 -192.66015625 286.2734375 C-194.1899489 283.66004172 -194.64776345 281.66212294 -195.16015625 278.7109375 C-196.28164062 279.34322266 -196.28164062 279.34322266 -197.42578125 279.98828125 C-198.410625 280.53613281 -199.39546875 281.08398438 -200.41015625 281.6484375 C-201.87195313 282.46634766 -201.87195313 282.46634766 -203.36328125 283.30078125 C-208.53824006 285.90994344 -213.42706542 286.26476023 -219.16015625 285.7109375 C-222.49684116 284.40527819 -223.76675118 283.29195179 -225.765625 280.33984375 C-227.76637857 275.133401 -227.64869564 270.30675555 -227.59765625 264.7734375 C-227.59008301 263.62262695 -227.58250977 262.47181641 -227.57470703 261.28613281 C-226.99934402 230.70369882 -217.56302512 199.08835044 -202.16015625 172.7109375 C-209.40115462 173.31435403 -216.14703536 174.84347839 -223.16015625 176.7109375 C-223.89621094 176.824375 -224.63226563 176.9378125 -225.390625 177.0546875 C-227.88256125 177.97884929 -228.04508812 179.34374351 -229.16015625 181.7109375 C-229.94187769 183.03381212 -230.73963184 184.34730646 -231.55078125 185.65234375 C-232.24046997 186.76826904 -232.24046997 186.76826904 -232.9440918 187.90673828 C-233.42789307 188.68774902 -233.91169434 189.46875977 -234.41015625 190.2734375 C-238.54271474 196.98267226 -242.51242418 203.72329885 -246.16015625 210.7109375 C-245.50015625 211.7009375 -244.84015625 212.6909375 -244.16015625 213.7109375 C-243.78515625 216.7109375 -243.78515625 216.7109375 -244.16015625 219.7109375 C-245.72265625 221.6484375 -245.72265625 221.6484375 -248.16015625 222.7109375 C-251.61129077 222.58984506 -254.12878404 222.34306885 -257.09765625 220.5234375 C-258.69411985 217.80005843 -258.54646497 215.80140729 -258.16015625 212.7109375 C-257.44279297 212.06705078 -257.44279297 212.06705078 -256.7109375 211.41015625 C-254.48890938 208.9754403 -254.42369127 206.75007263 -253.97265625 203.5234375 C-253.81410156 202.43675781 -253.65554687 201.35007813 -253.4921875 200.23046875 C-253.38261719 199.39902344 -253.27304688 198.56757813 -253.16015625 197.7109375 C-257.69795309 202.27648845 -259.5280385 205.1369129 -260.16015625 211.7109375 C-261.22265625 213.6484375 -261.22265625 213.6484375 -263.16015625 214.7109375 C-266.01249493 215.1259294 -268.22643138 214.99033987 -271.16015625 214.7109375 C-273.16015625 211.7109375 -273.16015625 211.7109375 -273.03515625 208.7734375 C-272.16015625 205.7109375 -272.16015625 205.7109375 -270.40234375 204.06640625 C-267.26197285 200.7673755 -265.46527339 196.99753566 -263.41015625 192.9609375 C-262.99894531 192.16816406 -262.58773438 191.37539062 -262.1640625 190.55859375 C-261.15597391 188.61274834 -260.15495697 186.66360012 -259.16015625 184.7109375 C-260.94873047 185.1440625 -260.94873047 185.1440625 -262.7734375 185.5859375 C-264.33980137 185.96111448 -265.90620997 186.33610476 -267.47265625 186.7109375 C-268.25833984 186.90171875 -269.04402344 187.0925 -269.85351562 187.2890625 C-270.61083984 187.46953125 -271.36816406 187.65 -272.1484375 187.8359375 C-272.84493408 188.00351563 -273.54143066 188.17109375 -274.2590332 188.34375 C-276.16015625 188.7109375 -276.16015625 188.7109375 -279.16015625 188.7109375 C-279.24265625 189.3090625 -279.32515625 189.9071875 -279.41015625 190.5234375 C-280.42149836 193.47318531 -281.40427772 194.26047512 -284.16015625 195.7109375 C-287.58759854 196.0717209 -290.04137669 196.27032728 -293.16015625 194.7109375 C-294.83768294 191.35588413 -293.81378852 188.33562555 -293.16015625 184.7109375 C-290.65522964 183.67949713 -288.20821173 182.72441648 -285.59765625 181.9921875 C-280.83661056 180.21761592 -276.64564127 177.67333373 -272.28515625 175.0859375 C-271.40601563 174.5703125 -270.526875 174.0546875 -269.62109375 173.5234375 C-267.46445065 172.25758177 -265.31097637 170.98665343 -263.16015625 169.7109375 C-263.64742188 169.2778125 -264.1346875 168.8446875 -264.63671875 168.3984375 C-266.16015625 166.7109375 -266.16015625 166.7109375 -266.53515625 163.7109375 C-266.16015625 160.7109375 -266.16015625 160.7109375 -265.09765625 158.8359375 C-262.1218055 157.10802416 -259.52421256 157.46627886 -256.16015625 157.7109375 C-255.50015625 158.0409375 -254.84015625 158.3709375 -254.16015625 158.7109375 C-254.16015625 159.3709375 -254.16015625 160.0309375 -254.16015625 160.7109375 C-241.74091772 160.73537108 -231.9207198 160.45215556 -221.16015625 153.7109375 C-218.53739707 152.2091792 -215.88475948 150.76659994 -213.22265625 149.3359375 C-212.16655151 148.764198 -212.16655151 148.764198 -211.08911133 148.1809082 C-204.4359166 144.67251143 -197.53556403 141.9989674 -190.46704102 139.44970703 C-178.82508366 135.311665 -178.82508366 135.311665 -170.28515625 126.6484375 C-169.44163781 125.48397058 -168.5938802 124.32256417 -167.7421875 123.1640625 C-167.31760254 122.58462891 -166.89301758 122.00519531 -166.45556641 121.40820312 C-163.70071554 117.79875661 -160.55961459 114.53033483 -157.47265625 111.20703125 C-155.42357706 108.99527178 -153.43816144 106.74671474 -151.47265625 104.4609375 C-145.26353336 97.33785494 -138.40147197 90.08302508 -130.421875 84.94921875 C-127.81989824 82.8470041 -127.81989824 82.8470041 -127.8125 79.390625 C-127.90660156 78.13507813 -128.00070313 76.87953125 -128.09765625 75.5859375 C-128.57472781 63.80113397 -123.91437113 55.45681041 -116.16015625 46.7109375 C-111.8507936 42.9606273 -107.39116155 40.72676967 -102.03515625 38.8359375 C-97.39254245 37.09139704 -95.16466944 34.88740131 -92.12109375 31.05078125 C-68.72864108 3.13827299 -34.27024922 -13.97921167 0 0 Z M-33.91015625 19.8359375 C-34.47565186 20.2695459 -35.04114746 20.7031543 -35.6237793 21.14990234 C-42.70925626 26.73404622 -48.91939469 33.21755141 -55.16015625 39.7109375 C-50.33941511 42.12130807 -42.20792443 38.16434 -37.28515625 36.671875 C-30.97902928 34.50442578 -27.80220432 31.16310528 -24.16015625 25.7109375 C-21.24250625 23.7658375 -19.5347834 23.25817433 -16.16015625 22.7109375 C-18.95211636 19.42627854 -22.39212442 17.69771792 -26.16015625 15.7109375 C-29.37389694 15.7109375 -31.45374976 17.94461643 -33.91015625 19.8359375 Z M-16.16015625 22.7109375 C-15.17015625 24.1959375 -15.17015625 24.1959375 -14.16015625 25.7109375 C-14.03515625 28.8984375 -14.03515625 28.8984375 -14.16015625 31.7109375 C-11.52015625 31.3809375 -8.88015625 31.0509375 -6.16015625 30.7109375 C-10.18224233 25.41904201 -10.18224233 25.41904201 -16.16015625 22.7109375 Z M-32.16015625 49.7109375 C-35.16015625 48.7109375 -35.16015625 48.7109375 -37.16015625 45.7109375 C-44.40213373 46.90484268 -51.47554858 48.60520327 -58.16015625 51.7109375 C-59.50558759 53.82376543 -59.50558759 53.82376543 -58.22265625 56.7109375 C-55.21942116 66.66686752 -57.81160597 76.74870088 -61.91015625 86.0234375 C-66.49605808 94.40810876 -74.42773334 97.72478198 -83.16015625 100.7109375 C-92.89161808 103.09847006 -102.21477569 102.23172122 -111.16015625 97.7109375 C-113.35406907 96.23235088 -115.39426194 94.69695964 -117.40625 92.98046875 C-119.51228109 91.45605872 -120.53040273 90.72536028 -123.16015625 90.7109375 C-125.28273458 92.31196802 -127.04229191 93.8495969 -128.91015625 95.7109375 C-129.98097422 96.73911155 -131.05258947 97.76645589 -132.125 98.79296875 C-132.64433105 99.29650879 -133.16366211 99.80004883 -133.69873047 100.31884766 C-135.55908809 102.0909424 -137.50524785 103.74673847 -139.47265625 105.3984375 C-142.74085822 108.23537158 -145.56897296 111.2970398 -148.36328125 114.59765625 C-150.95437705 117.64501022 -153.66472162 120.58293201 -156.36328125 123.53515625 C-158.24029873 125.80797959 -159.70723611 128.15038996 -161.16015625 130.7109375 C-155.14292155 129.66713148 -149.17888626 128.50001806 -143.22265625 127.1484375 C-136.87945124 125.76064237 -130.63833855 125.05501678 -124.16015625 124.7109375 C-124.49015625 125.7009375 -124.82015625 126.6909375 -125.16015625 127.7109375 C-127.60727032 128.77312914 -129.93436224 129.6111282 -132.47265625 130.3984375 C-133.25664795 130.65117432 -134.04063965 130.90391113 -134.84838867 131.16430664 C-142.17581131 133.48760171 -149.57591019 135.55924191 -156.97265625 137.6484375 C-171.98211023 141.89187959 -186.88556973 146.15328537 -201.09765625 152.6484375 C-231.4136432 166.47690158 -231.4136432 166.47690158 -247.16015625 164.7109375 C-245.84015625 165.7009375 -244.52015625 166.6909375 -243.16015625 167.7109375 C-244.83078125 168.3296875 -244.83078125 168.3296875 -246.53515625 168.9609375 C-248.07718949 169.54330112 -249.61882342 170.12672264 -251.16015625 170.7109375 C-252.000625 171.02417969 -252.84109375 171.33742187 -253.70703125 171.66015625 C-258.65149643 173.55553457 -262.8934444 175.56704456 -267.16015625 178.7109375 C-263.44319072 180.06012451 -260.90358326 179.32627635 -257.16015625 178.2734375 C-253.55329527 177.268025 -250.94285578 176.7109375 -247.16015625 176.7109375 C-247.63066406 177.37480469 -248.10117188 178.03867188 -248.5859375 178.72265625 C-249.20855469 179.60566406 -249.83117187 180.48867187 -250.47265625 181.3984375 C-251.08753906 182.26855469 -251.70242187 183.13867188 -252.3359375 184.03515625 C-254.89654551 187.78305164 -254.89654551 187.78305164 -257.16015625 191.7109375 C-256.83015625 192.3709375 -256.50015625 193.0309375 -256.16015625 193.7109375 C-255.31710938 192.916875 -254.4740625 192.1228125 -253.60546875 191.3046875 C-252.49894005 190.2731777 -251.39215596 189.24194181 -250.28515625 188.2109375 C-249.72957031 187.68628906 -249.17398438 187.16164062 -248.6015625 186.62109375 C-244.38671875 182.7109375 -244.38671875 182.7109375 -242.16015625 182.7109375 C-243.15015625 188.1559375 -243.15015625 188.1559375 -244.16015625 193.7109375 C-240.7978623 190.59910788 -238.34374496 187.14191427 -235.84765625 183.3359375 C-225.54655218 168.2408983 -209.77126671 164.29017851 -192.97265625 159.2734375 C-191.39436512 158.79639787 -189.81607741 158.31934694 -188.23779297 157.84228516 C-148.31452625 145.8494165 -148.31452625 145.8494165 -134.66796875 145.39453125 C-133.46914062 145.35263672 -132.2703125 145.31074219 -131.03515625 145.26757812 C-129.79765625 145.22826172 -128.56015625 145.18894531 -127.28515625 145.1484375 C-125.39410156 145.08366211 -125.39410156 145.08366211 -123.46484375 145.01757812 C-120.36338202 144.91184648 -117.2618448 144.80975179 -114.16015625 144.7109375 C-114.49015625 145.7009375 -114.82015625 146.6909375 -115.16015625 147.7109375 C-117.41259766 148.56787109 -117.41259766 148.56787109 -120.38671875 149.234375 C-121.47887695 149.4828418 -122.57103516 149.73130859 -123.69628906 149.98730469 C-128.12577742 150.91266439 -132.56135356 151.79664486 -137.00537109 152.64941406 C-148.28531632 154.84330021 -159.49635911 157.32306444 -170.56524658 160.41717529 C-172.48671345 160.94756564 -174.41791239 161.44229251 -176.34912109 161.93603516 C-183.78751465 164.09530728 -187.75839525 166.33021762 -191.74121094 173.05664062 C-192.20946289 173.93255859 -192.67771484 174.80847656 -193.16015625 175.7109375 C-193.63098633 176.49919922 -194.10181641 177.28746094 -194.58691406 178.09960938 C-209.61472917 203.52476086 -218.32677551 234.01881425 -218.34765625 263.5859375 C-218.36602539 264.98972656 -218.36602539 264.98972656 -218.38476562 266.421875 C-218.38669922 267.3190625 -218.38863281 268.21625 -218.390625 269.140625 C-218.39473389 269.94741699 -218.39884277 270.75420898 -218.40307617 271.58544922 C-218.28970195 274.01130514 -218.28970195 274.01130514 -216.16015625 276.7109375 C-195.96821125 275.81351772 -173.04339301 251.83839964 -157.5078125 240.23828125 C-107.40919733 202.92587996 -107.40919733 202.92587996 -87.16015625 201.7109375 C-90.27316239 205.17320774 -93.42001353 207.06706624 -97.53515625 209.2109375 C-121.57125256 222.23314234 -143.93878162 239.10154791 -165.65844727 255.60424805 C-169.3448806 258.39708581 -173.09231992 261.00206121 -176.97265625 263.5234375 C-181.2826919 266.52235306 -182.90087978 268.58388332 -184.16015625 273.7109375 C-184.35665537 276.43316918 -184.30420024 278.97410172 -184.16015625 281.7109375 C-177.65513465 284.43433171 -171.34921164 285.69047058 -164.41015625 286.8359375 C-149.01770548 289.51679115 -133.97329548 293.37985536 -118.85105896 297.26583862 C-109.13899346 300.02620361 -109.13899346 300.02620361 -99.16015625 300.7109375 C-107.90543062 294.88075459 -118.94272503 292.50352796 -128.99951172 289.85449219 C-129.86850098 289.61891602 -130.73749023 289.38333984 -131.6328125 289.140625 C-132.79695679 288.83487549 -132.79695679 288.83487549 -133.98461914 288.52294922 C-136.42732367 287.61121818 -138.15405383 286.35906203 -140.16015625 284.7109375 C-139.17917969 284.90429688 -138.19820312 285.09765625 -137.1875 285.296875 C-120.29781782 288.70291459 -120.29781782 288.70291459 -103.16015625 289.7109375 C-105.86276708 287.00832667 -108.27651059 286.72126476 -111.97265625 285.7734375 C-112.63539551 285.60158936 -113.29813477 285.42974121 -113.98095703 285.25268555 C-119.54251117 283.82554228 -125.13592174 282.54589854 -130.74609375 281.32421875 C-133.16015625 280.7109375 -133.16015625 280.7109375 -134.16015625 279.7109375 C-125.58015625 279.3809375 -117.00015625 279.0509375 -108.16015625 278.7109375 C-113.76327536 273.10781839 -126.71951778 274.32271743 -134.26953125 274.078125 C-135.90876556 274.01578171 -135.90876556 274.01578171 -137.58111572 273.95217896 C-141.02390862 273.82288072 -144.46696909 273.70421861 -147.91015625 273.5859375 C-150.26434903 273.49940536 -152.61851614 273.41217204 -154.97265625 273.32421875 C-160.70155168 273.11169604 -166.43070486 272.90787116 -172.16015625 272.7109375 C-172.49015625 271.3909375 -172.82015625 270.0709375 -173.16015625 268.7109375 C-172.57363281 268.42677979 -171.98710937 268.14262207 -171.3828125 267.84985352 C-169.36986336 266.81839396 -167.4981976 265.71126729 -165.59765625 264.48828125 C-164.89737305 264.04073486 -164.19708984 263.59318848 -163.47558594 263.13208008 C-162.71149414 262.64247803 -161.94740234 262.15287598 -161.16015625 261.6484375 C-152.80734549 256.33399062 -144.37618226 251.15467871 -135.91015625 246.0234375 C-135.3378125 245.67634735 -134.76546875 245.3292572 -134.17578125 244.97164917 C-123.42581067 238.45498033 -112.66462153 231.9548793 -101.83895874 225.56454468 C-84.23320208 215.17099842 -66.95390064 204.38243964 -50.16015625 192.7109375 C-49.39203613 192.20361084 -48.62391602 191.69628418 -47.83251953 191.17358398 C-47.28063965 190.69091064 -46.72875977 190.2082373 -46.16015625 189.7109375 C-46.16015625 188.7209375 -46.16015625 187.7309375 -46.16015625 186.7109375 C-100.84133775 186.13543931 -154.90776882 190.43231887 -196.16015625 230.7109375 C-196.82015625 231.3709375 -197.48015625 232.0309375 -198.16015625 232.7109375 C-199.48015625 232.7109375 -200.80015625 232.7109375 -202.16015625 232.7109375 C-203.03515625 230.6484375 -203.03515625 230.6484375 -203.16015625 227.7109375 C-199.61381867 222.10775841 -194.24394164 218.1707885 -188.91015625 214.3984375 C-188.12729248 213.8401123 -187.34442871 213.28178711 -186.5378418 212.70654297 C-178.43196611 207.03380647 -169.9543459 202.22361076 -161.16015625 197.7109375 C-160.5254541 197.37868164 -159.89075195 197.04642578 -159.23681641 196.70410156 C-130.26083158 181.6658348 -98.04602819 179.33471695 -65.98681641 179.50512695 C-62.34530874 179.52376948 -58.70405113 179.5256333 -55.0625 179.52539062 C-52.74609153 179.53029362 -50.42968478 179.53611653 -48.11328125 179.54296875 C-47.02501038 179.54408157 -45.9367395 179.5451944 -44.81549072 179.54634094 C-43.82224792 179.55272079 -42.82900513 179.55910065 -41.80566406 179.56567383 C-40.49169647 179.57139153 -40.49169647 179.57139153 -39.15118408 179.57722473 C-37.16015625 179.7109375 -37.16015625 179.7109375 -36.16015625 180.7109375 C-35.921875 182.8203125 -35.921875 182.8203125 -35.84765625 185.4609375 C-35.81027344 186.32203125 -35.77289063 187.183125 -35.734375 188.0703125 C-36.44376303 192.46981993 -39.21024976 194.9829009 -42.66772461 197.6328125 C-43.60237549 198.23609375 -44.53702637 198.839375 -45.5 199.4609375 C-46.55203613 200.14502686 -47.60407227 200.82911621 -48.68798828 201.53393555 C-49.82427955 202.2600173 -50.96084221 202.9856745 -52.09765625 203.7109375 C-53.27617507 204.47065079 -54.45439424 205.23082911 -55.63232422 205.99145508 C-59.13235388 208.24599565 -62.64463411 210.48062721 -66.16015625 212.7109375 C-67.11325684 213.31599121 -68.06635742 213.92104492 -69.04833984 214.54443359 C-80.01397324 221.47635965 -91.15266471 228.08865352 -102.37744141 234.59106445 C-111.39486365 239.82034248 -120.29596151 245.22677661 -129.16015625 250.7109375 C-128.49619997 253.73775092 -128.49619997 253.73775092 -126.49145508 254.80200195 C-120.37541265 257.48617777 -114.42956475 258.85918879 -107.84765625 259.8984375 C-106.89181641 260.06279297 -105.93597656 260.22714844 -104.95117188 260.39648438 C-70.99174197 266.03735807 -36.48152946 263.57579854 -7.6171875 243.29296875 C23.56517814 220.34857886 44.69876801 186.87974769 51.83984375 148.7109375 C51.83984375 147.3909375 51.83984375 146.0709375 51.83984375 144.7109375 C47.77192877 145.31662303 44.17033145 146.65986916 40.35913086 148.13647461 C14.55545142 158.10870052 -12.10697512 159.33914863 -37.8203125 148.23828125 C-49.20429463 143.03227305 -59.55704569 134.459751 -66.16015625 123.7109375 C-66.87985349 121.72940266 -67.55888371 119.73156012 -68.16015625 117.7109375 C-67.20238281 118.15824219 -66.24460938 118.60554688 -65.2578125 119.06640625 C-34.34579275 133.22410344 0.56580128 138.1571604 33.265625 126.70263672 C47.11137893 121.36865982 60.99436774 114.70860733 72.83984375 105.7109375 C74.01412721 104.84218333 75.18861918 103.97371093 76.36328125 103.10546875 C82.73702909 98.5472743 82.73702909 98.5472743 87.83984375 92.7109375 C79.86614586 84.94808259 71.0843062 78.84715017 61.83984375 72.7109375 C59.258878 73.95924773 56.9558369 75.27803623 54.52734375 76.8359375 C50.83692521 78.93348308 48.11230921 79.33238702 43.83984375 78.7109375 C38.30138221 75.63401442 38.30138221 75.63401442 36.83984375 72.7109375 C36.70568903 70.0385754 36.79665834 67.38843262 36.83984375 64.7109375 C38.48984375 64.3809375 40.13984375 64.0509375 41.83984375 63.7109375 C41.94296875 64.3090625 42.04609375 64.9071875 42.15234375 65.5234375 C42.96165181 68.09850859 43.60208247 69.19245663 45.83984375 70.7109375 C48.43101688 70.70937526 48.43101688 70.70937526 50.83984375 69.7109375 C51.49984375 68.7209375 52.15984375 67.7309375 52.83984375 66.7109375 C38.54078563 57.29514263 23.08699042 49.83285432 7.40234375 43.0234375 C6.64034668 42.68441406 5.87834961 42.34539063 5.09326172 41.99609375 C-7.75436673 36.58052722 -22.79665682 39.62716889 -32.16015625 49.7109375 Z M152.83984375 168.7109375 C153.16984375 170.6909375 153.49984375 172.6709375 153.83984375 174.7109375 C156.14984375 175.3709375 158.45984375 176.0309375 160.83984375 176.7109375 C157.81247402 171.60480559 157.81247402 171.60480559 152.83984375 168.7109375 Z " fill="#010201" transform="translate(294.16015625,7.2890625)"/>
<path d="M0 0 C4.00024604 3.63459284 6.72929205 7.87124081 7.203125 13.34765625 C7.36833449 22.91603942 6.05997429 31.13654448 -0.796875 38.23828125 C-7.60887008 43.68546171 -15.48427229 45.84232722 -24.1171875 45.4140625 C-32.63599432 44.19049404 -39.23602293 40.35478471 -45 34 C-47.38070536 30.03215774 -47.57999172 26.56743476 -47 22 C-43.56492306 12.94503616 -38.63442059 3.97062273 -29.84375 -0.6640625 C-19.15147401 -5.05378131 -10.58580015 -4.9056147 0 0 Z " fill="#B6B6B6" transform="translate(222,56)"/>
<path d="M0 0 C-2.28072107 2.50072632 -4.61770294 4.03784643 -7.5625 5.6875 C-21.28637142 13.79074101 -35.41911497 26.22548662 -45 39 C-49.95 38.01 -54.9 37.02 -60 36 C-50.99793829 17.99587657 -25.59627025 7.7692762 -7.76953125 0.8125 C-5.02094185 0.00614373 -2.84523034 -0.16644858 0 0 Z " fill="#B3B3B3" transform="translate(271,9)"/>
<path d="M0 0 C1.65 0 3.3 0 5 0 C5.95942128 2.57030146 6.09171193 3.73534559 5.1796875 6.3671875 C-0.26966121 16.84168411 -7.04594259 24.70385273 -18.75 28.4375 C-23.95743137 29.3387862 -27.45623369 29.80157097 -32.25 27.3125 C-36.47384298 23.76063204 -37.8465708 21.61100657 -38.375 16.0625 C-38.18971228 11.16163991 -36.47442019 7.47442019 -33 4 C-30.375 3.875 -30.375 3.875 -28 4 C-28.01160156 4.99902344 -28.02320313 5.99804688 -28.03515625 7.02734375 C-28.04417969 8.31769531 -28.05320312 9.60804687 -28.0625 10.9375 C-28.07410156 12.22527344 -28.08570313 13.51304688 -28.09765625 14.83984375 C-28.36532549 17.86298403 -28.36532549 17.86298403 -27 19 C-19.69847731 19.37485496 -14.38153335 16.75511148 -9 12 C-5.65317289 8.30206751 -2.24241739 4.48483477 0 0 Z " fill="#020402" transform="translate(289,68)"/>
<path d="M0 0 C12.4258295 7.07885551 24.79518561 19.64586238 32 32 C32 32.99 32 33.98 32 35 C27.47533413 33.61746321 23.00539579 32.13095969 18.6875 30.1875 C18.07261719 29.91292969 17.45773437 29.63835938 16.82421875 29.35546875 C14.16948873 27.38289634 12.80517128 24.75771553 11 22 C9.18120245 19.94878552 7.37305291 17.99364534 5.4375 16.0625 C4.66164551 15.28253662 4.66164551 15.28253662 3.87011719 14.48681641 C-0.35366059 10.36690202 -4.87572297 7.22310645 -10.015625 4.3046875 C-10.67046875 3.87414062 -11.3253125 3.44359375 -12 3 C-12 2.34 -12 1.68 -12 1 C-7.62373231 -1.25444093 -4.76432789 -1.03396052 0 0 Z " fill="#B2B2B2" transform="translate(289,15)"/>
<path d="M0 0 C0.66 0.33 1.32 0.66 2 1 C-1.70691832 3.91770345 -5.43800328 6.79869607 -9.20410156 9.63964844 C-10.86196045 10.89543823 -12.50587741 12.16957724 -14.1484375 13.4453125 C-19.85892842 17.62701058 -24.06117734 20.05442004 -31.24609375 19.46875 C-40.9455187 17.81778405 -40.9455187 17.81778405 -45 16 C-46.31223496 12.06329512 -45.24296256 9.87511856 -44 6 C-40.43141676 6.59476387 -37.51904238 7.59731026 -34.25 9.125 C-28.98729692 11.20847483 -25.42123823 11.78092775 -20 10 C-13.70317218 7.27251446 -7.63157712 4.02958788 -1.64453125 0.68359375 C-0.83048828 0.34521484 -0.83048828 0.34521484 0 0 Z " fill="#64945D" transform="translate(396,160)"/>
<path d="M0 0 C0 0.33 0 0.66 0 1 C-2.37528151 0.85796663 -4.75015251 0.71148388 -7.125 0.5625 C-7.79015625 0.52318359 -8.4553125 0.48386719 -9.140625 0.44335938 C-13.15018817 0.187848 -17.04994196 -0.26782413 -21 -1 C-19.34524223 2.60153162 -17.91074922 4.2974477 -14.3125 5.8125 C-13.219375 6.204375 -12.12625 6.59625 -11 7 C-14.13349732 8.04449911 -14.98968256 7.93423645 -18 7 C-18 7.66 -18 8.32 -18 9 C-17.484375 9.2475 -16.96875 9.495 -16.4375 9.75 C-13.22815849 11.39581616 -10.12414336 13.1976096 -7 15 C-7.66 15.33 -8.32 15.66 -9 16 C-10.92016602 15.16723633 -10.92016602 15.16723633 -13.25390625 13.83203125 C-14.5368457 13.10983398 -14.5368457 13.10983398 -15.84570312 12.37304688 C-16.74224609 11.85806641 -17.63878906 11.34308594 -18.5625 10.8125 C-24.91905213 7.18893544 -31.24602368 3.82779652 -38 1 C-38 0.34 -38 -0.32 -38 -1 C-23.5601994 -8.06108692 -14.6343709 -4.55328876 0 0 Z " fill="#62915B" transform="translate(300,273)"/>
<path d="M0 0 C0.94875 0.04125 1.8975 0.0825 2.875 0.125 C3.171875 2.3359375 3.171875 2.3359375 2.875 5.125 C0.828125 7.4765625 0.828125 7.4765625 -1.875 9.75 C-2.75671875 10.50539062 -3.6384375 11.26078125 -4.546875 12.0390625 C-6.70663919 13.78650807 -8.88535966 15.48189938 -11.125 17.125 C-11.785 16.795 -12.445 16.465 -13.125 16.125 C-11.83726848 13.83104107 -10.54503228 11.53983216 -9.25 9.25 C-8.70279297 8.27353516 -8.70279297 8.27353516 -8.14453125 7.27734375 C-4.11145174 0.16445807 -4.11145174 0.16445807 0 0 Z " fill="#5F8E59" transform="translate(345.125,197.875)"/>
<path d="M0 0 C5.28994696 1.48417007 9.52102279 3.91259228 14.125 6.8125 C15.17880859 7.45155273 15.17880859 7.45155273 16.25390625 8.10351562 C20.29757009 10.62985003 23.23834586 13.01491876 26 17 C21.74690111 16.47399837 19.59071836 15.16052192 16.375 12.375 C11.83336232 8.57890224 7.10802887 5.42025578 2.0546875 2.34765625 C1.37664062 1.90292969 0.69859375 1.45820313 0 1 C0 0.67 0 0.34 0 0 Z " fill="#5B8855" transform="translate(293,289)"/>
<path d="M0 0 C3.25696479 0.41755959 4.63443291 0.63443291 7 3 C6.625 5.625 6.625 5.625 6 8 C3.625 8.125 3.625 8.125 1 8 C-1 6 -1 6 -1.1875 3.4375 C-1 1 -1 1 0 0 Z " fill="#5F8E59" transform="translate(210,308)"/>
<path d="M0 0 C1.65 0 3.3 0 5 0 C5.33 1.65 5.66 3.3 6 5 C4.02 4.34 2.04 3.68 0 3 C0 2.01 0 1.02 0 0 Z " fill="#5E8C57" transform="translate(214,300)"/>
<path d="M0 0 C0.66 0.33 1.32 0.66 2 1 C-2.455 4.465 -2.455 4.465 -7 8 C-7 5 -7 5 -5.75 3.4375 C-3.89392947 1.91287064 -2.24094248 0.86746161 0 0 Z " fill="#5B8855" transform="translate(396,160)"/>
<path d="M0 0 C1.65 0 3.3 0 5 0 C5 1.32 5 2.64 5 4 C3.35 4 1.7 4 0 4 C0 2.68 0 1.36 0 0 Z " fill="#4D7448" transform="translate(448,187)"/>
</svg>
