<?xml version="1.0" encoding="UTF-8" ?>
<!DOCTYPE svg PUBLIC "-//W3C//DTD SVG 1.1//EN" "http://www.w3.org/Graphics/SVG/1.1/DTD/svg11.dtd">
<svg width="591pt" height="591pt" viewBox="0 0 591 591" version="1.1" xmlns="http://www.w3.org/2000/svg">
<path fill="#698265" opacity="1.00" d=" M 0.00 0.00 L 0.56 0.00 C 0.42 0.13 0.14 0.39 0.00 0.51 L 0.00 0.00 Z" />
<path fill="#698265" opacity="1.00" d=" M 590.49 0.00 L 591.00 0.00 L 591.00 0.56 C 590.87 0.42 590.61 0.14 590.49 0.00 Z" />
<path fill="#698265" opacity="1.00" d=" M 236.48 82.18 C 241.52 79.26 247.59 79.90 253.11 78.71 C 264.27 78.17 276.09 77.90 286.36 83.00 C 279.10 80.90 271.67 78.82 264.05 79.06 C 254.81 79.11 245.44 79.82 236.48 82.18 Z" />
<path fill="#000000" opacity="1.00" d=" M 236.48 82.18 C 245.44 79.82 254.81 79.11 264.05 79.06 C 271.67 78.82 279.10 80.90 286.36 83.00 L 287.44 83.43 C 287.49 83.46 287.60 83.51 287.65 83.54 L 288.56 84.10 C 294.67 88.72 302.56 92.77 304.61 100.77 C 306.58 107.44 308.60 114.10 310.66 120.74 C 311.23 122.60 311.34 124.56 311.34 126.50 C 302.83 127.47 294.26 130.06 287.47 135.44 C 282.64 139.45 279.97 145.51 275.01 149.37 C 271.92 149.69 269.69 146.83 266.83 146.06 C 261.01 144.04 255.34 140.56 249.03 140.75 C 241.11 144.62 234.64 151.10 226.44 154.54 C 216.75 158.64 206.62 162.28 196.03 162.85 C 191.40 168.06 186.32 172.93 182.40 178.72 C 184.17 182.08 187.00 186.54 183.90 190.01 C 181.34 193.69 176.43 192.99 172.66 192.10 C 167.74 199.01 163.46 206.35 158.97 213.54 C 163.99 213.70 169.01 213.56 174.01 213.05 C 175.65 212.79 177.73 213.16 178.20 215.04 C 177.54 218.18 176.60 221.26 176.01 224.42 C 174.57 230.76 170.11 236.22 164.55 239.48 C 158.65 242.84 151.40 242.12 145.20 240.01 C 142.15 245.56 139.81 251.47 136.93 257.10 C 130.62 269.27 123.40 281.36 120.97 295.04 C 129.24 292.21 137.26 288.21 146.08 287.40 C 150.68 287.02 155.31 287.03 159.92 287.28 C 169.63 288.18 178.86 291.53 188.09 294.46 C 192.93 295.91 197.89 296.88 202.79 298.10 C 216.75 300.31 231.17 297.79 244.00 292.02 C 251.57 287.94 258.15 282.23 263.88 275.86 C 266.49 272.91 267.49 269.01 268.72 265.37 C 269.17 265.40 270.08 265.46 270.53 265.49 C 272.73 270.27 269.85 275.26 267.17 279.16 C 261.70 286.36 254.40 291.89 246.91 296.83 C 233.80 303.62 218.55 305.84 203.93 304.24 C 198.96 303.39 194.08 302.02 189.15 300.89 C 178.56 297.84 168.17 293.36 157.01 292.93 C 149.89 292.92 142.59 293.10 135.86 295.69 C 134.93 296.24 133.12 296.13 133.08 297.54 C 141.31 307.49 148.64 318.16 156.91 328.08 C 172.68 346.90 188.49 365.76 206.06 382.95 C 217.74 394.08 230.33 404.21 243.58 413.40 C 246.82 415.44 249.20 418.54 252.43 420.59 C 262.18 426.35 272.34 431.78 283.49 434.28 C 288.64 435.35 293.76 436.78 299.00 437.33 C 309.07 436.42 318.79 433.47 328.29 430.17 C 334.75 427.73 340.50 423.82 346.33 420.19 C 355.86 414.49 366.26 410.45 375.92 404.99 C 389.37 398.65 402.68 391.97 415.46 384.35 C 416.27 383.57 418.37 383.14 417.57 381.68 C 414.47 379.27 410.76 377.81 407.67 375.39 C 389.82 362.09 371.24 349.33 356.21 332.75 C 347.02 321.68 336.43 311.31 330.56 297.96 C 330.29 292.50 331.65 285.54 337.23 283.06 C 343.32 279.81 350.39 281.00 357.00 280.49 C 365.68 280.46 374.48 280.38 383.01 282.25 C 394.74 284.56 406.62 286.47 417.99 290.23 C 438.59 297.32 459.14 307.18 473.85 323.70 C 464.94 308.53 453.63 294.98 442.86 281.13 C 437.73 275.08 433.90 268.01 428.29 262.35 C 416.38 265.76 404.42 269.61 391.97 270.28 C 381.27 270.51 370.56 270.33 359.92 269.10 C 351.05 268.01 341.89 267.64 333.47 264.35 C 331.58 263.82 331.50 261.78 331.16 260.20 C 335.76 260.49 340.27 261.53 344.83 262.12 C 358.80 264.24 372.94 264.22 387.03 264.62 C 400.42 264.55 413.32 260.54 426.06 256.85 C 436.93 252.75 447.09 247.02 457.12 241.21 C 448.70 243.46 440.64 246.93 432.07 248.62 C 425.77 249.81 419.46 251.39 413.01 251.32 C 400.60 251.36 387.87 251.25 375.99 247.21 C 365.78 244.43 355.36 241.34 346.61 235.19 C 345.18 234.42 345.56 232.62 345.23 231.30 C 352.61 234.59 359.98 238.08 367.93 239.78 C 376.26 241.57 384.49 244.08 393.03 244.66 C 400.68 245.15 408.34 245.80 416.01 245.33 C 412.54 239.57 407.64 234.87 403.10 229.98 C 388.85 211.70 372.61 195.09 356.41 178.56 C 353.55 176.47 349.58 177.55 346.29 176.67 C 338.71 175.02 330.93 174.39 323.44 172.34 C 309.42 167.63 295.52 162.44 282.34 155.72 C 280.42 154.46 277.64 152.85 278.40 150.10 C 279.36 147.16 282.19 145.41 284.22 143.24 C 290.49 136.79 298.04 131.52 306.46 128.28 C 309.27 127.22 312.34 127.39 315.29 127.33 C 323.67 126.73 332.43 127.82 339.96 131.69 C 346.71 140.15 350.15 150.80 353.19 161.09 C 354.49 165.06 355.18 169.60 358.50 172.49 C 365.54 179.13 371.70 186.63 378.74 193.27 C 378.93 193.47 379.33 193.88 379.52 194.08 C 392.36 207.78 404.42 222.18 416.66 236.41 C 418.77 238.89 421.06 241.42 421.69 244.74 C 437.75 242.39 453.01 236.55 468.11 230.86 C 470.61 230.13 471.90 227.68 473.35 225.72 C 476.60 220.67 481.06 216.59 484.71 211.84 C 487.45 208.23 490.64 205.01 493.82 201.79 C 497.66 197.94 502.50 195.06 505.64 190.53 C 505.22 186.96 503.44 183.43 504.93 179.85 C 505.24 179.45 505.85 178.63 506.16 178.22 C 510.07 175.05 515.43 174.41 520.18 175.81 L 520.36 175.97 C 523.80 179.26 525.73 183.79 524.99 188.60 C 524.62 189.45 524.18 190.27 523.68 191.05 C 520.23 194.54 515.18 195.07 510.53 194.61 C 503.63 201.60 496.83 209.31 494.32 219.06 C 499.85 219.13 505.39 219.12 510.93 219.30 C 521.26 219.95 531.51 221.61 541.85 222.18 C 547.99 222.50 553.79 225.18 560.00 224.86 C 566.19 225.58 572.18 219.83 578.13 223.68 C 578.88 224.30 579.60 224.96 580.29 225.67 C 582.57 229.23 582.76 233.87 579.66 237.03 L 579.16 237.29 C 575.32 239.48 570.73 240.65 566.69 238.21 L 566.02 237.77 C 564.76 236.15 563.69 234.41 562.68 232.64 C 557.54 231.38 552.38 229.87 547.04 230.05 C 538.73 230.21 530.43 230.80 522.19 231.79 C 525.06 232.53 527.96 233.38 530.47 235.04 L 530.98 235.35 L 531.62 235.16 C 542.10 238.49 552.09 243.62 560.89 250.26 C 561.12 250.49 561.58 250.95 561.81 251.18 C 562.46 251.88 563.12 252.60 563.79 253.32 C 567.52 251.77 571.69 251.49 575.66 252.12 C 579.31 253.37 581.85 257.17 581.88 260.99 C 582.06 264.14 579.40 266.80 576.57 267.69 C 572.96 268.48 569.20 267.96 565.66 267.08 L 564.63 266.58 C 564.58 266.55 564.47 266.48 564.42 266.45 C 564.10 266.11 563.45 265.44 563.13 265.10 C 561.99 263.56 561.12 261.71 559.45 260.67 C 552.36 256.31 545.67 250.98 537.51 248.75 L 537.42 248.71 C 533.21 246.65 528.74 245.01 524.07 244.41 C 521.38 244.35 518.64 244.33 516.10 243.34 C 518.27 244.38 520.14 245.93 521.84 247.61 C 527.82 253.14 533.83 258.64 539.74 264.25 C 539.95 264.46 540.37 264.88 540.58 265.09 C 544.73 269.77 548.42 274.97 550.58 280.88 C 551.17 283.66 554.46 284.09 555.88 286.28 C 558.94 290.21 559.79 296.39 556.16 300.25 C 553.16 303.29 548.46 301.93 544.83 301.05 C 544.54 300.78 543.96 300.25 543.67 299.98 C 541.44 296.18 542.37 291.60 541.41 287.62 C 532.68 278.77 524.31 269.28 513.70 262.59 C 502.12 255.58 490.95 247.74 478.66 242.02 L 477.62 241.56 C 477.56 241.53 477.44 241.47 477.39 241.44 L 476.33 240.82 C 474.84 239.93 473.39 238.99 471.83 238.26 C 467.84 239.88 465.09 243.55 461.30 245.57 C 455.10 248.97 449.00 252.57 442.69 255.76 L 442.29 255.95 C 439.53 257.24 436.78 258.54 434.03 259.84 C 446.43 277.36 460.71 293.46 472.79 311.21 C 477.82 318.70 482.83 326.58 484.62 335.56 C 486.05 338.01 488.10 340.00 489.76 342.29 C 493.77 347.39 496.88 353.12 500.83 358.26 L 501.20 358.81 C 502.56 362.75 502.85 367.54 500.08 370.97 C 495.32 377.48 487.15 379.62 479.85 381.93 C 472.46 383.51 464.94 385.32 457.33 384.34 C 460.37 388.78 463.24 393.35 466.49 397.65 C 467.78 399.52 469.47 401.45 469.23 403.91 C 468.91 404.98 468.54 406.02 468.12 407.05 C 467.86 407.31 467.35 407.82 467.09 408.07 C 452.78 418.95 440.40 432.15 429.17 446.13 C 423.48 453.44 417.81 460.75 412.05 468.00 C 409.23 471.86 406.15 475.63 404.20 480.03 C 404.38 481.52 405.99 482.36 406.82 483.51 L 407.19 483.92 C 409.59 487.81 409.40 493.61 405.46 496.42 C 399.58 500.20 390.02 498.28 387.45 491.31 C 385.23 484.55 389.69 476.12 397.05 475.18 C 401.55 463.50 406.12 451.62 413.89 441.65 C 409.43 445.57 405.24 449.78 400.88 453.81 C 400.66 454.00 400.23 454.38 400.01 454.57 C 396.48 457.49 393.24 460.74 389.70 463.66 C 385.64 467.28 381.12 470.53 377.92 475.00 C 376.81 476.49 377.22 478.47 377.12 480.20 L 377.13 480.68 C 373.90 486.88 363.84 490.05 359.03 483.96 L 358.90 483.31 C 357.45 478.54 359.34 473.86 361.86 469.85 C 362.10 469.56 362.59 468.97 362.83 468.68 C 365.30 467.55 367.95 466.95 370.64 466.57 C 375.87 457.11 383.79 449.56 390.34 441.04 C 390.90 440.41 391.48 439.81 392.09 439.23 C 392.35 438.95 392.88 438.39 393.14 438.11 C 396.29 434.21 399.69 430.55 403.09 426.88 C 398.70 429.44 394.30 431.99 389.81 434.39 C 377.05 442.05 366.74 452.97 355.14 462.15 C 353.70 465.77 351.51 469.45 347.55 470.68 C 343.68 471.50 338.78 471.30 336.30 467.74 C 334.67 462.36 336.77 455.57 342.14 453.10 C 344.89 451.75 347.96 452.63 350.82 453.04 C 356.54 447.51 361.20 441.03 366.48 435.10 C 366.68 434.88 367.10 434.43 367.30 434.21 C 384.63 415.04 406.65 400.75 430.00 390.01 C 427.92 388.42 425.84 386.71 423.28 385.98 C 422.37 386.84 421.49 387.74 420.46 388.46 C 407.37 396.06 394.00 403.20 380.20 409.44 C 373.82 412.75 367.54 416.27 360.97 419.23 C 352.77 423.11 345.05 427.91 337.28 432.57 C 330.31 436.32 322.54 438.22 315.00 440.48 C 306.88 442.97 298.34 442.23 289.99 441.93 L 289.48 441.79 C 285.07 440.31 280.43 439.66 276.00 438.26 C 271.41 436.89 267.07 434.85 262.65 433.04 L 261.57 432.55 C 261.51 432.52 261.40 432.46 261.34 432.43 L 260.37 431.87 C 257.73 430.33 255.24 428.42 252.33 427.41 C 246.74 430.66 241.23 434.18 236.35 438.46 C 227.07 446.17 219.71 455.80 211.69 464.74 C 205.50 472.07 199.40 479.49 193.47 487.04 C 194.24 488.14 195.01 489.24 195.76 490.36 L 195.90 490.57 C 199.66 497.76 190.38 506.88 183.38 502.72 C 179.58 500.71 179.59 495.74 180.12 492.06 C 181.47 487.97 186.69 487.42 188.61 483.96 C 189.37 475.19 191.66 466.64 195.11 458.55 L 195.22 458.33 C 196.56 455.98 197.94 453.64 199.10 451.18 C 200.81 447.67 202.71 444.24 204.71 440.88 C 202.42 442.58 200.10 444.25 197.82 445.98 C 189.58 452.40 182.26 459.86 174.59 466.92 C 174.42 467.07 174.10 467.37 173.93 467.52 C 169.74 471.21 165.82 475.21 161.77 479.06 C 162.35 480.32 162.92 481.59 163.51 482.85 L 163.98 483.87 C 164.35 485.84 165.06 487.88 164.58 489.91 C 163.73 491.94 162.02 493.43 160.53 495.00 L 160.23 495.23 C 156.00 496.50 150.87 495.93 147.71 492.62 C 146.29 490.32 145.09 487.67 145.12 484.93 C 146.17 480.23 150.80 477.02 155.38 476.35 C 155.47 474.75 155.35 473.06 156.24 471.64 C 160.67 463.03 166.76 455.43 173.06 448.13 C 175.77 445.25 178.39 442.21 181.78 440.09 C 175.45 443.05 169.06 445.88 162.90 449.18 C 157.02 452.46 151.47 456.30 145.51 459.47 C 145.43 461.46 145.31 463.45 145.21 465.45 L 144.77 465.92 C 143.67 467.04 142.76 468.31 141.87 469.60 L 141.50 470.07 C 138.57 470.95 135.49 471.03 132.46 470.82 L 132.37 470.82 C 132.30 469.60 131.62 468.94 130.32 468.84 C 129.90 468.72 129.04 468.48 128.61 468.36 C 126.72 465.08 126.70 461.20 127.83 457.66 C 128.09 457.43 128.62 456.95 128.88 456.71 C 131.90 453.78 136.15 453.46 140.00 454.79 C 144.24 451.45 148.30 447.87 152.32 444.27 C 162.65 434.68 176.16 429.87 188.24 423.00 C 196.15 419.01 204.78 416.84 213.00 413.63 C 217.87 411.73 222.97 410.50 228.14 409.74 C 222.47 405.02 216.63 400.50 211.12 395.59 C 210.88 395.37 210.42 394.93 210.18 394.71 C 201.72 387.10 193.76 378.97 185.97 370.68 C 185.74 370.43 185.29 369.94 185.06 369.69 C 182.75 366.98 180.34 364.37 177.86 361.81 C 177.61 362.16 177.09 362.85 176.83 363.19 C 163.23 381.09 148.49 398.13 136.07 416.91 C 132.67 422.14 128.50 427.10 126.96 433.28 L 126.72 434.00 C 126.55 434.51 126.21 435.52 126.04 436.03 L 125.79 436.72 C 121.63 446.09 120.04 456.31 117.51 466.18 C 116.36 471.36 115.01 476.53 114.67 481.85 C 120.28 484.79 120.85 493.38 115.64 496.99 L 115.27 497.17 C 111.33 498.56 106.99 498.50 103.02 497.27 C 100.67 496.27 100.13 493.32 100.06 491.04 C 100.30 486.71 104.19 483.92 107.77 482.23 C 108.48 472.61 108.62 462.96 108.26 453.33 C 101.20 454.40 94.71 457.46 87.76 458.93 C 76.25 461.84 65.25 466.45 54.66 471.76 L 54.46 471.85 C 48.19 474.67 42.27 478.20 36.08 481.20 C 36.38 482.23 36.66 483.27 36.94 484.32 C 37.11 486.96 36.83 489.77 34.86 491.75 C 32.03 495.55 26.87 495.75 22.59 495.26 C 21.09 494.42 19.77 493.26 18.78 491.87 C 17.61 489.17 17.18 486.27 17.38 483.35 C 13.23 483.24 7.92 482.45 6.17 478.08 C 5.77 473.89 8.83 469.69 12.86 468.57 C 14.85 468.73 16.74 469.42 18.64 469.98 C 20.93 467.11 23.36 464.35 25.99 461.80 C 26.65 461.30 27.30 460.80 27.94 460.29 C 31.00 457.88 33.96 455.35 37.09 453.04 C 32.65 454.04 28.34 455.54 24.03 456.97 C 22.32 462.87 15.47 465.76 9.81 464.11 C 9.53 463.85 8.99 463.32 8.71 463.06 C 8.18 461.73 7.67 460.39 7.34 459.00 C 6.49 453.46 11.59 448.16 17.03 448.05 C 19.21 447.90 20.81 449.62 22.50 450.72 C 25.60 449.87 28.62 448.74 31.45 447.20 L 31.57 447.14 C 41.79 442.47 52.65 438.75 63.93 437.97 C 77.99 436.18 92.34 435.43 106.38 437.76 C 114.83 423.17 121.25 407.52 129.37 392.75 C 138.78 374.83 150.55 357.77 155.67 337.96 C 156.28 336.08 154.77 334.57 153.76 333.20 C 145.51 323.32 137.90 312.92 130.11 302.68 C 129.14 301.45 128.20 300.18 126.95 299.24 C 123.52 300.11 119.78 302.67 116.27 300.79 C 114.11 298.32 115.08 294.86 115.59 291.96 C 118.41 280.48 123.56 269.72 129.24 259.40 C 133.30 251.83 136.76 243.97 140.41 236.20 C 136.72 231.68 133.57 226.42 133.20 220.45 C 131.30 220.39 127.64 220.91 127.73 218.02 C 127.59 215.79 130.12 215.11 131.82 214.70 C 138.52 213.59 145.35 214.28 152.07 213.44 C 157.19 205.44 162.25 197.39 167.29 189.34 C 168.70 187.39 165.71 186.42 164.54 185.49 C 160.54 183.28 156.04 180.10 151.26 181.49 C 147.06 184.31 144.94 189.22 141.36 192.69 C 141.10 192.28 140.60 191.46 140.35 191.05 C 142.27 186.55 143.25 181.57 146.31 177.63 C 149.54 173.50 152.72 169.08 157.25 166.27 C 160.27 164.33 164.21 164.92 167.31 166.35 C 171.36 168.29 174.77 171.27 178.44 173.80 C 182.09 169.88 185.43 165.70 189.12 161.82 C 181.21 160.82 173.18 158.42 167.42 152.61 C 162.34 147.88 161.05 140.78 158.23 134.71 L 158.23 134.71 C 156.49 129.60 156.30 124.11 157.29 118.83 C 157.38 118.40 157.56 117.54 157.64 117.11 C 159.30 117.71 159.50 119.43 159.80 120.95 C 160.90 126.52 163.90 131.96 168.94 134.84 C 172.27 137.16 176.60 137.86 180.42 136.37 L 180.88 136.23 C 185.92 134.70 190.91 132.41 194.84 128.85 C 199.37 123.68 204.42 118.77 207.14 112.34 C 211.69 104.17 216.19 95.56 223.59 89.57 C 227.23 86.17 231.98 84.48 236.33 82.24 L 236.48 82.18 M 511.36 181.59 C 508.39 183.68 511.24 189.75 515.00 188.81 C 517.69 189.28 520.58 186.91 519.58 184.06 C 519.06 180.19 514.11 180.21 511.36 181.59 M 483.09 222.06 C 480.70 225.95 476.24 229.08 476.21 234.03 C 490.90 241.51 505.03 250.14 518.85 259.14 C 528.85 265.57 536.39 274.86 544.96 282.94 C 543.93 278.83 541.32 275.39 538.84 272.05 C 532.48 264.51 524.56 258.50 517.66 251.49 C 513.71 246.55 507.91 243.51 504.01 238.54 C 508.83 236.94 513.88 238.22 518.82 238.24 C 523.72 238.29 528.36 239.98 533.11 240.98 C 532.88 239.85 532.19 239.22 531.06 239.06 C 525.68 237.51 520.76 234.27 515.02 234.14 C 509.98 233.96 505.05 232.90 500.03 232.59 C 499.09 232.56 498.33 232.16 497.76 231.41 C 502.60 229.37 507.70 227.89 512.91 227.18 C 516.30 226.86 519.72 226.95 523.09 226.34 C 521.67 225.18 519.72 225.31 518.02 225.08 C 511.37 224.73 504.69 225.64 498.05 224.86 C 494.45 224.21 489.98 226.87 487.40 223.24 C 488.54 217.84 492.62 213.80 494.19 208.60 C 489.33 211.99 486.09 217.07 483.09 222.06 M 139.25 219.71 C 139.18 227.82 146.37 236.46 154.88 235.70 C 153.53 234.37 152.46 232.81 151.71 231.08 C 151.79 227.17 150.99 223.04 152.66 219.36 C 148.18 219.30 143.71 219.46 139.25 219.71 M 159.45 219.50 C 157.07 222.26 157.05 226.18 157.66 229.58 C 158.85 231.80 161.94 233.50 164.35 232.50 C 168.17 229.22 170.64 224.39 170.90 219.34 C 167.08 219.41 163.25 219.14 159.45 219.50 M 568.16 229.74 C 568.82 231.05 569.35 232.53 570.47 233.56 C 572.89 234.51 575.58 233.31 576.74 231.03 C 575.40 227.26 570.82 227.78 568.16 229.74 M 567.21 261.46 C 569.86 262.03 573.29 263.60 575.66 261.67 C 577.68 255.75 565.52 255.59 567.21 261.46 M 337.91 289.94 C 336.91 292.63 335.66 295.97 337.42 298.61 C 342.18 307.45 348.93 314.96 355.36 322.60 C 364.15 333.12 374.25 342.49 385.14 350.81 C 394.48 357.93 403.53 365.51 413.69 371.45 C 419.48 375.64 425.51 379.50 431.33 383.65 C 435.82 386.80 439.10 391.26 442.60 395.40 C 443.52 396.64 444.79 397.87 444.52 399.60 C 440.54 399.71 438.46 395.33 434.95 394.58 C 428.43 396.73 422.29 399.92 416.46 403.52 C 403.35 410.89 390.64 419.26 379.95 429.92 C 374.76 435.08 369.33 440.08 365.05 446.04 C 376.42 436.46 388.33 427.14 402.05 421.12 C 405.81 419.57 409.72 418.09 413.86 418.14 C 413.70 419.42 413.89 420.86 412.99 421.92 C 409.40 427.26 405.72 432.57 401.14 437.12 C 395.62 444.52 389.33 451.30 383.52 458.49 C 380.61 462.15 377.20 465.51 375.16 469.78 C 376.96 467.16 379.05 464.74 381.61 462.83 C 394.75 452.26 405.80 439.13 420.19 430.12 C 421.86 429.08 423.89 429.22 425.74 429.59 C 425.26 432.98 423.57 435.98 422.00 438.97 C 417.39 447.30 411.67 455.06 408.07 463.92 C 423.78 443.02 439.90 421.91 460.66 405.70 C 461.53 404.83 463.61 403.84 462.60 402.34 C 457.83 395.21 452.56 388.41 448.35 380.92 C 446.58 377.70 444.04 375.01 442.13 371.89 C 431.09 354.97 418.77 338.82 404.54 324.45 C 396.49 314.60 385.85 307.28 375.07 300.72 C 374.79 300.36 374.23 299.64 373.95 299.28 C 375.70 299.30 377.53 299.12 379.20 299.77 C 389.01 303.37 397.37 309.92 405.17 316.72 C 418.45 329.31 430.10 343.55 440.56 358.56 C 445.11 365.02 449.20 371.80 454.04 378.06 C 465.59 380.04 477.28 376.90 488.06 372.89 C 492.18 371.02 497.19 367.71 496.58 362.54 C 495.15 361.17 493.92 359.61 493.02 357.86 C 489.42 351.09 484.66 345.05 479.80 339.16 C 473.81 332.19 467.88 325.05 460.61 319.35 C 454.78 314.77 448.81 310.26 442.12 307.01 C 431.29 301.50 420.05 296.62 408.25 293.60 C 388.90 287.22 368.24 285.45 347.97 286.71 C 344.40 286.59 340.40 287.07 337.91 289.94 M 547.58 290.46 C 546.89 292.54 547.97 294.55 548.76 296.43 C 550.09 296.24 552.56 297.05 552.62 294.96 C 552.98 292.97 552.38 290.48 550.65 289.33 C 549.55 289.37 548.18 289.37 547.58 290.46 M 160.64 341.96 C 156.95 354.23 151.21 365.74 144.79 376.78 C 139.03 387.09 133.33 397.43 128.07 408.00 C 123.27 417.57 118.97 427.40 113.70 436.74 C 112.46 438.98 110.35 440.72 107.96 441.60 C 104.01 441.81 100.05 442.56 96.09 442.10 C 87.91 441.17 79.71 442.66 71.51 442.15 C 60.04 441.61 48.79 444.56 37.92 447.91 C 36.84 448.37 35.31 448.48 34.87 449.81 C 43.36 448.94 51.55 445.23 60.19 446.22 C 53.02 449.46 46.52 453.90 39.58 457.54 C 35.87 459.93 31.51 461.63 28.74 465.20 C 35.04 463.00 41.25 460.34 47.07 457.04 C 53.45 454.60 59.24 450.49 66.16 449.56 C 65.68 450.87 65.81 452.65 64.52 453.55 C 61.06 456.29 56.95 457.97 53.04 459.93 C 45.48 463.83 39.44 469.97 33.73 476.15 C 36.81 476.30 38.63 473.48 41.06 472.07 C 46.61 468.53 52.23 465.07 57.96 461.83 C 66.01 457.26 75.19 455.49 83.98 452.94 C 92.76 451.89 101.14 447.91 110.06 447.80 C 115.18 454.22 111.01 462.72 112.48 470.05 C 113.82 462.28 115.85 454.64 117.20 446.87 C 118.61 438.49 122.44 430.79 126.25 423.28 C 128.84 418.87 130.76 414.07 133.81 409.93 C 140.40 400.59 147.33 391.48 154.50 382.57 C 160.70 373.91 168.04 366.08 173.75 357.07 C 169.31 352.10 165.17 346.86 160.64 341.96 M 203.25 423.16 C 197.22 424.85 191.46 427.35 185.64 429.65 C 175.96 433.45 167.16 439.06 158.15 444.17 C 155.00 445.80 153.56 449.11 151.19 451.53 C 151.66 451.45 152.61 451.28 153.08 451.19 C 153.21 446.90 158.42 447.01 161.22 445.23 C 172.32 437.87 184.52 431.18 197.92 429.46 C 196.59 432.42 193.54 434.04 191.54 436.52 C 182.99 446.58 173.37 455.78 165.97 466.78 C 178.27 455.78 189.63 443.51 203.68 434.66 C 207.64 431.96 211.72 428.84 216.69 428.51 C 216.42 430.32 215.29 431.80 214.37 433.33 C 211.17 438.40 209.15 444.06 206.45 449.39 C 202.74 457.45 197.76 465.13 196.17 474.00 C 206.08 462.64 215.46 450.78 226.03 440.00 C 232.05 433.81 239.03 428.68 246.18 423.88 C 242.76 420.96 239.52 417.75 235.65 415.43 C 224.30 414.70 213.79 419.74 203.25 423.16 M 13.28 458.79 C 15.83 458.52 18.37 457.19 17.82 454.20 C 14.88 453.59 12.69 455.90 13.28 458.79 M 134.45 458.64 C 132.51 459.43 130.85 462.07 132.10 464.04 C 133.51 467.30 139.40 467.91 140.49 464.08 C 141.42 460.59 137.81 457.37 134.45 458.64 M 343.76 458.60 C 341.66 460.42 340.67 463.45 342.76 465.73 C 345.76 465.91 350.15 464.83 349.60 460.94 C 349.98 457.72 345.86 457.95 343.76 458.60 M 23.85 473.95 C 22.64 474.45 21.20 475.69 22.21 477.19 C 25.40 475.29 27.73 472.31 30.75 470.18 C 28.50 471.52 26.16 472.70 23.85 473.95 M 364.78 480.20 C 366.30 483.20 369.94 481.34 371.51 479.40 C 372.46 476.75 371.63 473.76 369.22 472.24 C 365.58 472.90 362.84 476.67 364.78 480.20 M 13.23 474.34 C 11.65 474.80 11.42 476.78 11.56 478.19 C 12.59 480.86 18.13 480.31 17.44 476.96 C 17.65 474.71 15.02 473.87 13.23 474.34 M 24.37 482.64 C 21.16 484.20 20.51 489.26 23.44 491.41 C 27.36 494.95 34.62 487.10 29.97 483.90 C 28.55 482.39 26.31 482.00 24.37 482.64 M 392.53 488.04 C 393.30 490.50 395.33 492.52 398.04 492.54 C 400.25 492.92 403.36 491.65 402.75 488.94 C 402.74 484.99 398.77 482.98 395.72 481.45 C 393.87 483.21 393.12 485.63 392.53 488.04 M 151.48 484.52 C 150.96 486.12 151.36 487.82 151.47 489.46 C 153.82 489.83 156.21 489.85 158.57 489.59 C 159.25 486.55 157.98 483.50 155.05 482.25 C 153.84 482.96 152.55 483.59 151.48 484.52 M 108.40 488.55 C 106.40 489.08 106.80 492.57 108.91 492.56 C 111.05 492.92 114.36 491.72 113.59 489.01 C 113.28 486.37 109.90 487.87 108.40 488.55 M 185.38 491.51 C 183.43 493.21 183.57 497.59 186.20 498.69 C 189.11 501.05 192.26 496.93 191.82 494.07 C 192.24 490.69 187.54 489.59 185.38 491.51 Z" />
<path fill="#a5c897" opacity="1.00" d=" M 223.17 89.21 C 226.98 85.95 231.55 83.69 236.33 82.24 C 231.98 84.48 227.23 86.17 223.59 89.57 C 216.19 95.56 211.69 104.17 207.14 112.34 C 204.42 118.77 199.37 123.68 194.84 128.85 C 190.91 132.41 185.92 134.70 180.88 136.23 C 186.16 133.72 192.10 131.74 195.94 127.05 C 198.79 123.14 202.69 120.00 204.80 115.57 C 209.98 106.21 214.94 96.31 223.17 89.21 Z" />
<path fill="#3a3a3a" opacity="0.19" d=" M 287.44 83.43 C 287.49 83.46 287.60 83.51 287.65 83.54 C 287.60 83.51 287.49 83.46 287.44 83.43 Z" />
<path fill="#a5c897" opacity="1.00" d=" M 288.56 84.10 C 292.77 86.08 296.14 89.37 299.79 92.18 C 304.61 95.94 305.47 102.33 307.19 107.80 C 308.76 112.53 310.02 117.35 311.42 122.13 C 311.98 124.75 314.25 126.80 316.90 127.18 C 319.89 126.98 322.94 126.24 325.92 127.07 C 331.03 128.24 336.61 128.82 340.93 132.07 C 344.37 137.09 347.35 142.46 349.45 148.19 C 352.42 155.22 353.37 163.01 356.94 169.79 C 360.61 174.43 365.37 178.07 369.14 182.62 C 372.08 186.40 375.96 189.34 378.74 193.27 C 371.70 186.63 365.54 179.13 358.50 172.49 C 355.18 169.60 354.49 165.06 353.19 161.09 C 350.15 150.80 346.71 140.15 339.96 131.69 C 332.43 127.82 323.67 126.73 315.29 127.33 C 313.96 127.10 312.64 126.83 311.34 126.50 C 311.34 124.56 311.23 122.60 310.66 120.74 C 308.60 114.10 306.58 107.44 304.61 100.77 C 302.56 92.77 294.67 88.72 288.56 84.10 Z" />
<path fill="#3a3a3a" opacity="0.19" d=" M 156.38 120.10 C 156.61 119.78 157.06 119.15 157.29 118.83 C 156.30 124.11 156.49 129.60 158.23 134.71 C 154.83 130.86 156.26 124.87 156.38 120.10 Z" />
<path fill="#a5c897" opacity="1.00" d=" M 159.80 120.95 C 161.76 126.24 164.13 131.97 169.46 134.67 C 172.63 137.08 176.71 136.54 180.42 136.37 C 176.60 137.86 172.27 137.16 168.94 134.84 C 163.90 131.96 160.90 126.52 159.80 120.95 Z" />
<path fill="#698265" opacity="1.00" d=" M 287.47 135.44 C 294.26 130.06 302.83 127.47 311.34 126.50 C 312.64 126.83 313.96 127.10 315.29 127.33 C 312.34 127.39 309.27 127.22 306.46 128.28 C 298.04 131.52 290.49 136.79 284.22 143.24 C 282.19 145.41 279.36 147.16 278.40 150.10 C 277.64 152.85 280.42 154.46 282.34 155.72 C 295.52 162.44 309.42 167.63 323.44 172.34 C 330.93 174.39 338.71 175.02 346.29 176.67 C 349.58 177.55 353.55 176.47 356.41 178.56 C 372.61 195.09 388.85 211.70 403.10 229.98 C 407.64 234.87 412.54 239.57 416.01 245.33 C 408.34 245.80 400.68 245.15 393.03 244.66 C 384.49 244.08 376.26 241.57 367.93 239.78 C 359.98 238.08 352.61 234.59 345.23 231.30 C 345.56 232.62 345.18 234.42 346.61 235.19 C 355.36 241.34 365.78 244.43 375.99 247.21 C 387.87 251.25 400.60 251.36 413.01 251.32 C 419.46 251.39 425.77 249.81 432.07 248.62 C 440.64 246.93 448.70 243.46 457.12 241.21 C 447.09 247.02 436.93 252.75 426.06 256.85 C 413.32 260.54 400.42 264.55 387.03 264.62 C 372.94 264.22 358.80 264.24 344.83 262.12 C 340.27 261.53 335.76 260.49 331.16 260.20 C 331.50 261.78 331.58 263.82 333.47 264.35 C 341.89 267.64 351.05 268.01 359.92 269.10 C 370.56 270.33 381.27 270.51 391.97 270.28 C 404.42 269.61 416.38 265.76 428.29 262.35 C 433.90 268.01 437.73 275.08 442.86 281.13 C 453.63 294.98 464.94 308.53 473.85 323.70 C 459.14 307.18 438.59 297.32 417.99 290.23 C 406.62 286.47 394.74 284.56 383.01 282.25 C 374.48 280.38 365.68 280.46 357.00 280.49 C 350.39 281.00 343.32 279.81 337.23 283.06 C 331.65 285.54 330.29 292.50 330.56 297.96 C 336.43 311.31 347.02 321.68 356.21 332.75 C 371.24 349.33 389.82 362.09 407.67 375.39 C 410.76 377.81 414.47 379.27 417.57 381.68 C 418.37 383.14 416.27 383.57 415.46 384.35 C 402.68 391.97 389.37 398.65 375.92 404.99 C 366.26 410.45 355.86 414.49 346.33 420.19 C 340.50 423.82 334.75 427.73 328.29 430.17 C 318.79 433.47 309.07 436.42 299.00 437.33 C 293.76 436.78 288.64 435.35 283.49 434.28 C 272.34 431.78 262.18 426.35 252.43 420.59 C 249.20 418.54 246.82 415.44 243.58 413.40 C 230.33 404.21 217.74 394.08 206.06 382.95 C 188.49 365.76 172.68 346.90 156.91 328.08 C 148.64 318.16 141.31 307.49 133.08 297.54 C 133.12 296.13 134.93 296.24 135.86 295.69 C 142.59 293.10 149.89 292.92 157.01 292.93 C 168.17 293.36 178.56 297.84 189.15 300.89 C 194.08 302.02 198.96 303.39 203.93 304.24 C 218.55 305.84 233.80 303.62 246.91 296.83 C 254.40 291.89 261.70 286.36 267.17 279.16 C 269.85 275.26 272.73 270.27 270.53 265.49 C 270.08 265.46 269.17 265.40 268.72 265.37 C 267.49 269.01 266.49 272.91 263.88 275.86 C 258.15 282.23 251.57 287.94 244.00 292.02 C 231.17 297.79 216.75 300.31 202.79 298.10 C 197.89 296.88 192.93 295.91 188.09 294.46 C 178.86 291.53 169.63 288.18 159.92 287.28 C 155.31 287.03 150.68 287.02 146.08 287.40 C 137.26 288.21 129.24 292.21 120.97 295.04 C 123.40 281.36 130.62 269.27 136.93 257.10 C 139.81 251.47 142.15 245.56 145.20 240.01 C 151.40 242.12 158.65 242.84 164.55 239.48 C 170.11 236.22 174.57 230.76 176.01 224.42 C 176.60 221.26 177.54 218.18 178.20 215.04 C 177.73 213.16 175.65 212.79 174.01 213.05 C 169.01 213.56 163.99 213.70 158.97 213.54 C 163.46 206.35 167.74 199.01 172.66 192.10 C 176.43 192.99 181.34 193.69 183.90 190.01 C 187.00 186.54 184.17 182.08 182.40 178.72 C 186.32 172.93 191.40 168.06 196.03 162.85 C 206.62 162.28 216.75 158.64 226.44 154.54 C 234.64 151.10 241.11 144.62 249.03 140.75 C 255.34 140.56 261.01 144.04 266.83 146.06 C 269.69 146.83 271.92 149.69 275.01 149.37 C 279.97 145.51 282.64 139.45 287.47 135.44 M 259.98 170.65 C 250.95 173.37 243.68 179.74 235.07 183.35 C 231.10 185.13 226.68 185.25 222.58 186.58 C 221.27 190.88 221.38 196.12 224.14 199.82 C 229.13 203.82 236.52 203.23 241.98 200.46 C 248.44 197.99 253.01 192.59 257.95 188.00 C 261.08 184.57 265.23 182.37 269.17 179.99 C 278.31 175.52 288.58 178.12 298.24 178.63 C 298.66 178.35 299.51 177.81 299.93 177.53 C 292.79 175.20 286.39 171.20 279.47 168.38 C 273.03 165.72 266.19 168.73 259.98 170.65 M 256.94 212.99 C 246.31 214.38 235.58 213.44 224.91 213.39 C 222.30 213.43 219.52 211.97 217.06 213.01 C 215.16 215.45 218.57 217.56 220.57 218.25 C 221.54 224.76 224.78 230.99 229.58 235.50 C 236.91 240.30 246.17 241.79 254.79 240.90 C 261.98 239.66 269.79 239.42 275.95 235.02 C 279.88 231.89 283.88 228.16 285.12 223.09 C 286.37 218.89 287.78 214.21 285.86 209.99 C 285.16 207.33 281.81 208.19 279.87 208.65 C 272.35 210.68 264.68 212.12 256.94 212.99 Z" />
<path fill="#d8d8d8" opacity="1.00" d=" M 158.23 134.71 C 161.05 140.78 162.34 147.88 167.42 152.61 C 173.18 158.42 181.21 160.82 189.12 161.82 C 185.43 165.70 182.09 169.88 178.44 173.80 C 174.77 171.27 171.36 168.29 167.31 166.35 C 164.21 164.92 160.27 164.33 157.25 166.27 C 152.72 169.08 149.54 173.50 146.31 177.63 C 143.25 181.57 142.27 186.55 140.35 191.05 C 140.60 191.46 141.10 192.28 141.36 192.69 C 144.94 189.22 147.06 184.31 151.26 181.49 C 156.04 180.10 160.54 183.28 164.54 185.49 C 165.71 186.42 168.70 187.39 167.29 189.34 C 162.25 197.39 157.19 205.44 152.07 213.44 C 145.35 214.28 138.52 213.59 131.82 214.70 C 130.12 215.11 127.59 215.79 127.73 218.02 C 127.64 220.91 131.30 220.39 133.20 220.45 C 133.57 226.42 136.72 231.68 140.41 236.20 C 136.76 243.97 133.30 251.83 129.24 259.40 C 123.56 269.72 118.41 280.48 115.59 291.96 C 115.08 294.86 114.11 298.32 116.27 300.79 C 119.78 302.67 123.52 300.11 126.95 299.24 C 128.20 300.18 129.14 301.45 130.11 302.68 C 137.90 312.92 145.51 323.32 153.76 333.20 C 154.77 334.57 156.28 336.08 155.67 337.96 C 150.55 357.77 138.78 374.83 129.37 392.75 C 121.25 407.52 114.83 423.17 106.38 437.76 C 92.34 435.43 77.99 436.18 63.93 437.97 C 52.65 438.75 41.79 442.47 31.57 447.14 C 40.26 442.44 49.95 439.43 59.72 437.93 C 69.84 437.51 79.81 435.27 89.96 435.58 C 95.49 435.25 100.83 437.44 106.37 436.58 C 109.26 432.49 111.09 427.80 113.62 423.51 C 120.83 408.31 128.29 393.21 136.76 378.66 C 143.68 366.34 150.62 353.82 154.70 340.22 C 155.83 337.44 154.64 334.39 152.65 332.34 C 144.94 323.08 137.87 313.32 130.46 303.82 C 129.24 302.47 128.17 300.31 126.03 300.48 C 123.44 300.12 121.34 301.92 118.99 302.60 C 117.32 302.27 115.67 301.31 114.67 299.90 C 114.00 288.79 119.82 278.81 123.82 268.83 C 127.84 260.83 132.58 253.17 135.96 244.85 C 137.14 241.63 139.77 238.42 138.65 234.80 C 137.50 232.27 135.61 230.14 134.58 227.55 C 133.74 225.68 133.32 223.56 131.96 221.97 C 130.62 221.01 128.94 220.78 127.38 220.37 C 127.00 218.23 127.61 216.17 128.99 214.52 L 129.29 214.60 C 133.83 214.08 138.36 213.38 142.95 213.63 C 146.40 213.52 150.75 214.19 153.04 210.94 C 157.93 203.93 162.53 196.66 166.47 189.08 C 166.19 188.49 165.63 187.30 165.35 186.71 C 161.78 184.01 157.58 181.66 153.01 181.56 C 150.00 182.28 147.24 184.72 146.62 187.81 C 146.35 189.03 144.86 189.24 144.00 189.92 C 143.51 191.63 142.88 193.32 141.90 194.82 L 143.12 191.71 C 143.19 193.68 138.18 194.90 139.52 192.45 C 141.79 187.31 142.88 181.55 146.44 177.06 C 150.03 172.26 153.93 167.02 159.74 164.84 C 165.29 163.92 170.22 167.42 174.45 170.53 C 176.55 172.51 180.00 171.85 181.64 169.62 C 183.57 167.62 187.24 164.21 184.33 161.54 C 175.31 159.64 166.21 154.53 162.29 145.82 C 160.81 142.17 159.32 138.50 158.23 134.71 Z" />
<path fill="#000000" opacity="1.00" d=" M 259.98 170.65 C 266.19 168.73 273.03 165.72 279.47 168.38 C 286.39 171.20 292.79 175.20 299.93 177.53 C 299.51 177.81 298.66 178.35 298.24 178.63 C 288.58 178.12 278.31 175.52 269.17 179.99 C 265.23 182.37 261.08 184.57 257.95 188.00 C 253.01 192.59 248.44 197.99 241.98 200.46 C 236.52 203.23 229.13 203.82 224.14 199.82 C 221.38 196.12 221.27 190.88 222.58 186.58 C 226.68 185.25 231.10 185.13 235.07 183.35 C 243.68 179.74 250.95 173.37 259.98 170.65 Z" />
<path fill="#a5c897" opacity="1.00" d=" M 506.16 178.22 C 509.69 174.50 515.60 173.52 520.18 175.81 C 515.43 174.41 510.07 175.05 506.16 178.22 Z" />
<path fill="#2e362d" opacity="0.92" d=" M 520.36 175.97 C 525.49 177.74 526.39 184.03 524.99 188.60 C 525.73 183.79 523.80 179.26 520.36 175.97 Z" />
<path fill="#a5c897" opacity="1.00" d=" M 504.55 191.11 C 505.43 187.31 502.30 183.36 504.93 179.85 C 503.44 183.43 505.22 186.96 505.64 190.53 C 502.50 195.06 497.66 197.94 493.82 201.79 C 490.64 205.01 487.45 208.23 484.71 211.84 C 481.06 216.59 476.60 220.67 473.35 225.72 C 471.90 227.68 470.61 230.13 468.11 230.86 C 453.01 236.55 437.75 242.39 421.69 244.74 C 421.06 241.42 418.77 238.89 416.66 236.41 C 404.42 222.18 392.36 207.78 379.52 194.08 C 385.44 198.67 389.40 205.14 394.88 210.16 C 403.30 220.70 412.67 230.43 420.90 241.12 C 422.10 242.67 424.02 243.78 426.04 243.42 C 434.98 242.16 443.55 239.18 452.00 236.12 C 457.56 234.65 462.87 232.44 468.17 230.24 C 471.54 228.62 473.15 225.05 475.37 222.26 C 482.16 214.13 488.70 205.72 496.63 198.65 C 499.42 196.31 502.64 194.29 504.55 191.11 Z" />
<path fill="#698265" opacity="1.00" d=" M 511.36 181.59 C 514.11 180.21 519.06 180.19 519.58 184.06 C 520.58 186.91 517.69 189.28 515.00 188.81 C 511.24 189.75 508.39 183.68 511.36 181.59 Z" />
<path fill="#d8d8d8" opacity="1.00" d=" M 510.53 194.61 C 515.18 195.07 520.23 194.54 523.68 191.05 C 522.12 192.65 520.29 194.10 518.08 194.59 C 514.78 195.77 510.66 194.73 508.14 197.65 C 503.53 202.04 499.60 207.26 496.87 213.02 C 495.77 214.82 496.20 217.08 497.65 218.53 C 504.08 218.86 510.60 218.02 516.95 219.43 C 525.65 219.76 534.21 221.61 542.93 221.78 C 548.99 222.49 554.80 225.17 561.01 224.39 C 566.78 224.97 572.87 218.96 578.13 223.68 C 572.18 219.83 566.19 225.58 560.00 224.86 C 553.79 225.18 547.99 222.50 541.85 222.18 C 531.51 221.61 521.26 219.95 510.93 219.30 C 505.39 219.12 499.85 219.13 494.32 219.06 C 496.83 209.31 503.63 201.60 510.53 194.61 Z" />
<path fill="#000000" opacity="1.00" d=" M 256.94 212.99 C 264.68 212.12 272.35 210.68 279.87 208.65 C 281.81 208.19 285.16 207.33 285.86 209.99 C 287.78 214.21 286.37 218.89 285.12 223.09 C 283.88 228.16 279.88 231.89 275.95 235.02 C 269.79 239.42 261.98 239.66 254.79 240.90 C 246.17 241.79 236.91 240.30 229.58 235.50 C 224.78 230.99 221.54 224.76 220.57 218.25 C 218.57 217.56 215.16 215.45 217.06 213.01 C 219.52 211.97 222.30 213.43 224.91 213.39 C 235.58 213.44 246.31 214.38 256.94 212.99 M 256.33 219.36 C 255.94 222.46 256.88 225.72 259.89 227.14 C 264.25 229.26 270.05 232.16 274.47 228.63 C 279.05 225.42 280.41 219.67 280.81 214.41 C 272.84 216.92 264.47 217.68 256.33 219.36 M 226.47 219.42 C 227.87 222.58 229.04 225.94 231.34 228.59 C 234.40 232.31 239.14 234.42 243.92 234.62 C 249.27 234.88 254.73 235.17 260.00 234.05 C 255.99 232.31 252.31 229.34 250.66 225.18 C 250.61 223.24 250.57 221.30 250.56 219.37 C 242.54 220.08 234.49 218.99 226.47 219.42 Z" />
<path fill="#698265" opacity="1.00" d=" M 483.09 222.06 C 486.09 217.07 489.33 211.99 494.19 208.60 C 492.62 213.80 488.54 217.84 487.40 223.24 C 489.98 226.87 494.45 224.21 498.05 224.86 C 504.69 225.64 511.37 224.73 518.02 225.08 C 519.72 225.31 521.67 225.18 523.09 226.34 C 519.72 226.95 516.30 226.86 512.91 227.18 C 507.70 227.89 502.60 229.37 497.76 231.41 C 498.33 232.16 499.09 232.56 500.03 232.59 C 505.05 232.90 509.98 233.96 515.02 234.14 C 520.76 234.27 525.68 237.51 531.06 239.06 C 532.19 239.22 532.88 239.85 533.11 240.98 C 528.36 239.98 523.72 238.29 518.82 238.24 C 513.88 238.22 508.83 236.94 504.01 238.54 C 507.91 243.51 513.71 246.55 517.66 251.49 C 524.56 258.50 532.48 264.51 538.84 272.05 C 541.32 275.39 543.93 278.83 544.96 282.94 C 536.39 274.86 528.85 265.57 518.85 259.14 C 505.03 250.14 490.90 241.51 476.21 234.03 C 476.24 229.08 480.70 225.95 483.09 222.06 Z" />
<path fill="#a5c897" opacity="1.00" d=" M 256.33 219.36 C 264.47 217.68 272.84 216.92 280.81 214.41 C 280.41 219.67 279.05 225.42 274.47 228.63 C 270.05 232.16 264.25 229.26 259.89 227.14 C 256.88 225.72 255.94 222.46 256.33 219.36 Z" />
<path fill="#f8f8f8" opacity="1.00" d=" M 139.25 219.71 C 143.71 219.46 148.18 219.30 152.66 219.36 C 150.99 223.04 151.79 227.17 151.71 231.08 C 152.46 232.81 153.53 234.37 154.88 235.70 C 146.37 236.46 139.18 227.82 139.25 219.71 Z" />
<path fill="#a5c897" opacity="1.00" d=" M 159.45 219.50 C 163.25 219.14 167.08 219.41 170.90 219.34 C 170.64 224.39 168.17 229.22 164.35 232.50 C 161.94 233.50 158.85 231.80 157.66 229.58 C 157.05 226.18 157.07 222.26 159.45 219.50 Z" />
<path fill="#f8f8f8" opacity="1.00" d=" M 226.47 219.42 C 234.49 218.99 242.54 220.08 250.56 219.37 C 250.57 221.30 250.61 223.24 250.66 225.18 C 252.31 229.34 255.99 232.31 260.00 234.05 C 254.73 235.17 249.27 234.88 243.92 234.62 C 239.14 234.42 234.40 232.31 231.34 228.59 C 229.04 225.94 227.87 222.58 226.47 219.42 Z" />
<path fill="#3a3a3a" opacity="0.19" d=" M 580.29 225.67 C 583.83 228.55 583.95 234.80 579.66 237.03 C 582.76 233.87 582.57 229.23 580.29 225.67 Z" />
<path fill="#698265" opacity="1.00" d=" M 568.16 229.74 C 570.82 227.78 575.40 227.26 576.74 231.03 C 575.58 233.31 572.89 234.51 570.47 233.56 C 569.35 232.53 568.82 231.05 568.16 229.74 Z" />
<path fill="#d8d8d8" opacity="1.00" d=" M 522.19 231.79 C 530.43 230.80 538.73 230.21 547.04 230.05 C 552.38 229.87 557.54 231.38 562.68 232.64 C 563.69 234.41 564.76 236.15 566.02 237.77 C 561.58 230.81 552.42 230.24 544.97 230.37 C 540.74 230.05 536.71 231.53 532.52 231.70 C 532.45 232.36 532.31 233.69 532.23 234.35 C 542.10 239.00 552.73 242.75 560.89 250.26 C 552.09 243.62 542.10 238.49 531.62 235.16 C 531.60 234.44 531.57 232.99 531.55 232.26 C 530.12 231.56 530.33 234.22 530.47 235.04 C 527.96 233.38 525.06 232.53 522.19 231.79 Z" />
<path fill="#698265" opacity="1.00" d=" M 566.69 238.21 C 570.73 240.65 575.32 239.48 579.16 237.29 C 575.74 240.36 570.35 241.67 566.69 238.21 Z" />
<path fill="#d8d8d8" opacity="1.00" d=" M 461.30 245.57 C 465.09 243.55 467.84 239.88 471.83 238.26 C 473.39 238.99 474.84 239.93 476.33 240.82 C 474.16 239.95 471.56 238.70 469.37 240.16 C 465.95 242.42 462.97 245.35 459.26 247.18 C 453.67 249.91 448.56 253.63 442.69 255.76 C 449.00 252.57 455.10 248.97 461.30 245.57 Z" />
<path fill="#3a3a3a" opacity="0.19" d=" M 477.39 241.44 C 477.44 241.47 477.56 241.53 477.62 241.56 C 477.56 241.53 477.44 241.47 477.39 241.44 Z" />
<path fill="#a5c897" opacity="1.00" d=" M 478.66 242.02 C 490.95 247.74 502.12 255.58 513.70 262.59 C 524.31 269.28 532.68 278.77 541.41 287.62 C 542.37 291.60 541.44 296.18 543.67 299.98 C 540.30 296.04 543.15 290.07 539.52 286.37 C 535.34 281.95 530.91 277.79 526.68 273.43 C 518.32 264.98 507.62 259.57 497.77 253.14 C 491.57 249.15 485.04 245.70 478.66 242.02 Z" />
<path fill="#f8f8f8" opacity="1.00" d=" M 516.10 243.34 C 518.64 244.33 521.38 244.35 524.07 244.41 C 523.31 245.47 522.57 246.54 521.84 247.61 C 520.14 245.93 518.27 244.38 516.10 243.34 Z" />
<path fill="#a5c897" opacity="1.00" d=" M 524.07 244.41 C 528.74 245.01 533.21 246.65 537.42 248.71 C 532.78 247.41 528.31 244.90 523.32 245.56 C 523.38 247.18 523.34 249.05 524.94 250.01 C 530.30 254.28 535.17 259.15 539.74 264.25 C 533.83 258.64 527.82 253.14 521.84 247.61 C 522.57 246.54 523.31 245.47 524.07 244.41 Z" />
<path fill="#698265" opacity="1.00" d=" M 537.51 248.75 C 545.67 250.98 552.36 256.31 559.45 260.67 C 561.12 261.71 561.99 263.56 563.13 265.10 C 559.08 260.49 553.49 257.87 548.55 254.40 C 545.13 252.00 540.97 251.02 537.51 248.75 Z" />
<path fill="#a5c897" opacity="1.00" d=" M 561.81 251.18 C 562.85 251.53 563.90 251.89 564.95 252.25 C 569.03 251.55 573.57 250.85 577.47 252.62 C 581.19 255.00 583.78 260.39 581.34 264.52 C 578.00 269.56 570.61 269.24 565.66 267.08 C 569.20 267.96 572.96 268.48 576.57 267.69 C 579.40 266.80 582.06 264.14 581.88 260.99 C 581.85 257.17 579.31 253.37 575.66 252.12 C 571.69 251.49 567.52 251.77 563.79 253.32 C 563.12 252.60 562.46 251.88 561.81 251.18 Z" />
<path fill="#a5c897" opacity="1.00" d=" M 434.03 259.84 C 436.78 258.54 439.53 257.24 442.29 255.95 C 439.93 257.64 435.04 259.15 436.93 262.93 C 448.05 278.98 461.37 293.43 472.14 309.75 C 476.55 315.60 480.10 322.05 483.15 328.70 C 484.52 331.54 484.41 335.01 486.49 337.52 C 491.77 344.06 496.60 351.00 500.83 358.26 C 496.88 353.12 493.77 347.39 489.76 342.29 C 488.10 340.00 486.05 338.01 484.62 335.56 C 482.83 326.58 477.82 318.70 472.79 311.21 C 460.71 293.46 446.43 277.36 434.03 259.84 Z" />
<path fill="#698265" opacity="1.00" d=" M 567.21 261.46 C 565.52 255.59 577.68 255.75 575.66 261.67 C 573.29 263.60 569.86 262.03 567.21 261.46 Z" />
<path fill="#a5c897" opacity="1.00" d=" M 540.58 265.09 C 545.48 268.86 548.15 274.60 550.88 279.97 C 552.51 283.24 556.06 285.02 557.58 288.37 C 559.83 292.38 559.38 298.25 555.59 301.18 C 552.35 303.08 548.07 302.78 544.83 301.05 C 548.46 301.93 553.16 303.29 556.16 300.25 C 559.79 296.39 558.94 290.21 555.88 286.28 C 554.46 284.09 551.17 283.66 550.58 280.88 C 548.42 274.97 544.73 269.77 540.58 265.09 Z" />
<path fill="#3a3a3a" opacity="0.19" d=" M 564.42 266.45 C 564.47 266.48 564.58 266.55 564.63 266.58 C 564.58 266.55 564.47 266.48 564.42 266.45 Z" />
<path fill="#698265" opacity="1.00" d=" M 337.91 289.94 C 340.40 287.07 344.40 286.59 347.97 286.71 C 368.24 285.45 388.90 287.22 408.25 293.60 C 420.05 296.62 431.29 301.50 442.12 307.01 C 448.81 310.26 454.78 314.77 460.61 319.35 C 467.88 325.05 473.81 332.19 479.80 339.16 C 484.66 345.05 489.42 351.09 493.02 357.86 C 493.92 359.61 495.15 361.17 496.58 362.54 C 497.19 367.71 492.18 371.02 488.06 372.89 C 477.28 376.90 465.59 380.04 454.04 378.06 C 449.20 371.80 445.11 365.02 440.56 358.56 C 430.10 343.55 418.45 329.31 405.17 316.72 C 397.37 309.92 389.01 303.37 379.20 299.77 C 377.53 299.12 375.70 299.30 373.95 299.28 C 374.23 299.64 374.79 300.36 375.07 300.72 C 385.85 307.28 396.49 314.60 404.54 324.45 C 418.77 338.82 431.09 354.97 442.13 371.89 C 444.04 375.01 446.58 377.70 448.35 380.92 C 452.56 388.41 457.83 395.21 462.60 402.34 C 463.61 403.84 461.53 404.83 460.66 405.70 C 439.90 421.91 423.78 443.02 408.07 463.92 C 411.67 455.06 417.39 447.30 422.00 438.97 C 423.57 435.98 425.26 432.98 425.74 429.59 C 423.89 429.22 421.86 429.08 420.19 430.12 C 405.80 439.13 394.75 452.26 381.61 462.83 C 379.05 464.74 376.96 467.16 375.16 469.78 C 377.20 465.51 380.61 462.15 383.52 458.49 C 389.33 451.30 395.62 444.52 401.14 437.12 C 405.72 432.57 409.40 427.26 412.99 421.92 C 413.89 420.86 413.70 419.42 413.86 418.14 C 409.72 418.09 405.81 419.57 402.05 421.12 C 388.33 427.14 376.42 436.46 365.05 446.04 C 369.33 440.08 374.76 435.08 379.95 429.92 C 390.64 419.26 403.35 410.89 416.46 403.52 C 422.29 399.92 428.43 396.73 434.95 394.58 C 438.46 395.33 440.54 399.71 444.52 399.60 C 444.79 397.87 443.52 396.64 442.60 395.40 C 439.10 391.26 435.82 386.80 431.33 383.65 C 425.51 379.50 419.48 375.64 413.69 371.45 C 403.53 365.51 394.48 357.93 385.14 350.81 C 374.25 342.49 364.15 333.12 355.36 322.60 C 348.93 314.96 342.18 307.45 337.42 298.61 C 335.66 295.97 336.91 292.63 337.91 289.94 Z" />
<path fill="#698265" opacity="1.00" d=" M 547.58 290.46 C 548.18 289.37 549.55 289.37 550.65 289.33 C 552.38 290.48 552.98 292.97 552.62 294.96 C 552.56 297.05 550.09 296.24 548.76 296.43 C 547.97 294.55 546.89 292.54 547.58 290.46 Z" />
<path fill="#698265" opacity="1.00" d=" M 160.64 341.96 C 165.17 346.86 169.31 352.10 173.75 357.07 C 168.04 366.08 160.70 373.91 154.50 382.57 C 147.33 391.48 140.40 400.59 133.81 409.93 C 130.76 414.07 128.84 418.87 126.25 423.28 C 122.44 430.79 118.61 438.49 117.20 446.87 C 115.85 454.64 113.82 462.28 112.48 470.05 C 111.01 462.72 115.18 454.22 110.06 447.80 C 101.14 447.91 92.76 451.89 83.98 452.94 C 75.19 455.49 66.01 457.26 57.96 461.83 C 52.23 465.07 46.61 468.53 41.06 472.07 C 38.63 473.48 36.81 476.30 33.73 476.15 C 39.44 469.97 45.48 463.83 53.04 459.93 C 56.95 457.97 61.06 456.29 64.52 453.55 C 65.81 452.65 65.68 450.87 66.16 449.56 C 59.24 450.49 53.45 454.60 47.07 457.04 C 41.25 460.34 35.04 463.00 28.74 465.20 C 31.51 461.63 35.87 459.93 39.58 457.54 C 46.52 453.90 53.02 449.46 60.19 446.22 C 51.55 445.23 43.36 448.94 34.87 449.81 C 35.31 448.48 36.84 448.37 37.92 447.91 C 48.79 444.56 60.04 441.61 71.51 442.15 C 79.71 442.66 87.91 441.17 96.09 442.10 C 100.05 442.56 104.01 441.81 107.96 441.60 C 110.35 440.72 112.46 438.98 113.70 436.74 C 118.97 427.40 123.27 417.57 128.07 408.00 C 133.33 397.43 139.03 387.09 144.79 376.78 C 151.21 365.74 156.95 354.23 160.64 341.96 Z" />
<path fill="#d8d8d8" opacity="1.00" d=" M 501.20 358.81 C 504.03 364.41 501.91 371.27 496.84 374.77 C 486.62 382.28 473.54 383.73 461.38 385.70 C 460.44 390.82 464.98 394.68 467.61 398.55 C 470.80 400.42 469.72 404.44 468.12 407.05 C 468.54 406.02 468.91 404.98 469.23 403.91 C 469.47 401.45 467.78 399.52 466.49 397.65 C 463.24 393.35 460.37 388.78 457.33 384.34 C 464.94 385.32 472.46 383.51 479.85 381.93 C 487.15 379.62 495.32 377.48 500.08 370.97 C 502.85 367.54 502.56 362.75 501.20 358.81 Z" />
<path fill="#d8d8d8" opacity="1.00" d=" M 176.83 363.19 C 177.09 362.85 177.61 362.16 177.86 361.81 C 180.34 364.37 182.75 366.98 185.06 369.69 C 182.31 367.54 180.33 363.57 176.21 364.49 L 176.13 364.36 C 176.31 364.07 176.66 363.48 176.83 363.19 Z" />
<path fill="#a5c897" opacity="1.00" d=" M 136.07 416.91 C 148.49 398.13 163.23 381.09 176.83 363.19 C 176.66 363.48 176.31 364.07 176.13 364.36 L 176.21 364.49 L 176.53 364.99 C 169.56 372.30 164.04 380.88 157.55 388.61 C 150.51 397.02 144.28 406.04 137.95 414.98 C 134.13 420.98 129.59 426.60 126.96 433.28 C 128.50 427.10 132.67 422.14 136.07 416.91 Z" />
<path fill="#a5c897" opacity="1.00" d=" M 185.97 370.68 C 193.76 378.97 201.72 387.10 210.18 394.71 C 204.13 390.54 199.34 384.93 194.09 379.86 C 191.23 376.95 188.03 374.26 185.97 370.68 Z" />
<path fill="#d8d8d8" opacity="1.00" d=" M 420.46 388.46 C 421.49 387.74 422.37 386.84 423.28 385.98 C 425.84 386.71 427.92 388.42 430.00 390.01 C 406.65 400.75 384.63 415.04 367.30 434.21 C 379.03 420.13 394.11 409.30 409.78 399.96 C 414.93 396.39 421.16 394.69 426.19 390.98 C 426.30 390.45 426.52 389.40 426.63 388.87 C 426.27 388.51 425.55 387.78 425.19 387.41 C 422.27 387.12 420.16 389.37 417.75 390.58 C 405.50 397.60 393.04 404.31 380.03 409.86 C 374.78 412.58 369.74 415.70 364.35 418.15 C 355.07 422.19 346.44 427.50 337.79 432.71 C 333.20 435.55 327.89 436.77 322.86 438.57 C 316.72 440.47 310.48 442.58 303.97 442.52 C 299.32 442.54 294.58 442.81 289.99 441.93 C 298.34 442.23 306.88 442.97 315.00 440.48 C 322.54 438.22 330.31 436.32 337.28 432.57 C 345.05 427.91 352.77 423.11 360.97 419.23 C 367.54 416.27 373.82 412.75 380.20 409.44 C 394.00 403.20 407.37 396.06 420.46 388.46 Z" />
<path fill="#d8d8d8" opacity="1.00" d=" M 211.12 395.59 C 216.63 400.50 222.47 405.02 228.14 409.74 C 222.97 410.50 217.87 411.73 213.00 413.63 C 204.78 416.84 196.15 419.01 188.24 423.00 C 176.16 429.87 162.65 434.68 152.32 444.27 C 148.30 447.87 144.24 451.45 140.00 454.79 C 136.15 453.46 131.90 453.78 128.88 456.71 C 131.63 453.21 136.21 453.76 140.13 453.40 C 144.54 451.34 147.75 447.47 151.59 444.58 C 161.04 435.21 173.84 430.80 185.07 424.13 C 195.35 418.70 206.71 415.88 217.50 411.68 C 219.81 410.65 224.84 410.77 223.58 407.00 C 219.98 402.70 214.66 400.01 211.12 395.59 Z" />
<path fill="#a5c897" opacity="1.00" d=" M 429.17 446.13 C 440.40 432.15 452.78 418.95 467.09 408.07 C 464.39 411.19 460.82 413.34 457.77 416.08 C 446.91 426.55 436.33 437.36 427.20 449.40 C 420.61 458.13 413.53 466.48 407.32 475.48 C 405.51 477.80 404.93 481.04 406.82 483.51 C 405.99 482.36 404.38 481.52 404.20 480.03 C 406.15 475.63 409.23 471.86 412.05 468.00 C 417.81 460.75 423.48 453.44 429.17 446.13 Z" />
<path fill="#698265" opacity="1.00" d=" M 203.25 423.16 C 213.79 419.74 224.30 414.70 235.65 415.43 C 239.52 417.75 242.76 420.96 246.18 423.88 C 239.03 428.68 232.05 433.81 226.03 440.00 C 215.46 450.78 206.08 462.64 196.17 474.00 C 197.76 465.13 202.74 457.45 206.45 449.39 C 209.15 444.06 211.17 438.40 214.37 433.33 C 215.29 431.80 216.42 430.32 216.69 428.51 C 211.72 428.84 207.64 431.96 203.68 434.66 C 189.63 443.51 178.27 455.78 165.97 466.78 C 173.37 455.78 182.99 446.58 191.54 436.52 C 193.54 434.04 196.59 432.42 197.92 429.46 C 184.52 431.18 172.32 437.87 161.22 445.23 C 158.42 447.01 153.21 446.90 153.08 451.19 C 152.61 451.28 151.66 451.45 151.19 451.53 C 153.56 449.11 155.00 445.80 158.15 444.17 C 167.16 439.06 175.96 433.45 185.64 429.65 C 191.46 427.35 197.22 424.85 203.25 423.16 Z" />
<path fill="#a5c897" opacity="1.00" d=" M 252.33 427.41 C 255.24 428.42 257.73 430.33 260.37 431.87 C 257.60 430.67 254.92 429.22 251.92 428.68 C 246.12 431.15 241.06 434.99 236.36 439.12 C 229.23 444.45 223.83 451.58 218.03 458.24 C 215.47 461.67 212.05 464.34 209.56 467.84 C 205.28 473.50 200.33 478.62 196.26 484.44 C 194.83 486.13 195.48 488.40 195.76 490.36 C 195.01 489.24 194.24 488.14 193.47 487.04 C 199.40 479.49 205.50 472.07 211.69 464.74 C 219.71 455.80 227.07 446.17 236.35 438.46 C 241.23 434.18 246.74 430.66 252.33 427.41 Z" />
<path fill="#f8f8f8" opacity="1.00" d=" M 389.81 434.39 C 394.30 431.99 398.70 429.44 403.09 426.88 C 399.69 430.55 396.29 434.21 393.14 438.11 C 393.57 436.84 394.41 434.32 394.83 433.05 C 393.13 433.43 391.46 433.88 389.81 434.39 Z" />
<path fill="#3a3a3a" opacity="0.19" d=" M 261.34 432.43 C 261.40 432.46 261.51 432.52 261.57 432.55 C 261.51 432.52 261.40 432.46 261.34 432.43 Z" />
<path fill="#a5c897" opacity="1.00" d=" M 262.65 433.04 C 267.07 434.85 271.41 436.89 276.00 438.26 C 280.43 439.66 285.07 440.31 289.48 441.79 C 280.16 440.28 270.87 437.80 262.65 433.04 Z" />
<path fill="#3a3a3a" opacity="0.19" d=" M 126.04 436.03 C 126.21 435.52 126.55 434.51 126.72 434.00 L 127.28 434.81 L 126.92 435.86 L 126.04 436.03 Z" />
<path fill="#698265" opacity="1.00" d=" M 355.14 462.15 C 366.74 452.97 377.05 442.05 389.81 434.39 C 391.46 433.88 393.13 433.43 394.83 433.05 C 394.41 434.32 393.57 436.84 393.14 438.11 C 392.88 438.39 392.35 438.95 392.09 439.23 C 392.29 438.16 392.70 436.02 392.90 434.95 C 386.40 436.13 381.35 441.00 376.16 444.78 C 370.50 450.60 363.80 455.27 357.82 460.73 C 354.23 463.83 353.03 469.51 348.08 471.02 C 344.38 471.86 339.82 471.92 336.92 469.07 C 334.90 467.74 335.27 465.07 335.32 463.00 C 335.27 457.32 340.01 451.64 345.89 451.69 C 348.20 451.47 351.02 452.29 352.80 450.32 C 357.90 445.75 360.91 439.19 366.48 435.10 C 361.20 441.03 356.54 447.51 350.82 453.04 C 347.96 452.63 344.89 451.75 342.14 453.10 C 336.77 455.57 334.67 462.36 336.30 467.74 C 338.78 471.30 343.68 471.50 347.55 470.68 C 351.51 469.45 353.70 465.77 355.14 462.15 Z" />
<path fill="#a5c897" opacity="1.00" d=" M 117.51 466.18 C 120.04 456.31 121.63 446.09 125.79 436.72 C 121.37 449.85 118.59 463.47 115.69 476.99 C 114.49 480.81 117.77 483.58 119.15 486.74 C 119.92 490.42 119.39 495.11 115.64 496.99 C 120.85 493.38 120.28 484.79 114.67 481.85 C 115.01 476.53 116.36 471.36 117.51 466.18 Z" />
<path fill="#f8f8f8" opacity="1.00" d=" M 162.90 449.18 C 169.06 445.88 175.45 443.05 181.78 440.09 C 178.39 442.21 175.77 445.25 173.06 448.13 C 166.76 455.43 160.67 463.03 156.24 471.64 C 155.35 473.06 155.47 474.75 155.38 476.35 C 150.80 477.02 146.17 480.23 145.12 484.93 C 145.09 487.67 146.29 490.32 147.71 492.62 C 150.87 495.93 156.00 496.50 160.23 495.23 C 156.59 497.09 152.27 496.15 148.98 494.02 C 146.31 491.93 145.12 488.41 144.79 485.16 C 145.40 479.99 150.72 478.05 154.23 475.14 C 158.06 466.28 163.99 458.57 170.06 451.15 C 171.49 449.85 171.88 448.06 171.85 446.19 C 170.06 446.33 168.29 446.66 166.70 447.53 C 159.71 450.79 153.59 455.58 146.74 459.11 C 145.93 461.14 145.51 463.28 145.21 465.45 C 145.31 463.45 145.43 461.46 145.51 459.47 C 151.47 456.30 157.02 452.46 162.90 449.18 Z" />
<path fill="#f8f8f8" opacity="1.00" d=" M 197.82 445.98 C 200.10 444.25 202.42 442.58 204.71 440.88 C 202.71 444.24 200.81 447.67 199.10 451.18 C 199.38 450.35 199.96 448.68 200.25 447.84 C 199.64 447.38 198.43 446.45 197.82 445.98 Z" />
<path fill="#a5c897" opacity="1.00" d=" M 385.49 446.09 C 386.92 444.24 388.50 442.50 390.34 441.04 C 383.79 449.56 375.87 457.11 370.64 466.57 C 367.95 466.95 365.30 467.55 362.83 468.68 C 365.31 466.99 368.32 466.43 370.97 465.08 C 374.92 458.11 380.54 452.32 385.49 446.09 Z" />
<path fill="#f8f8f8" opacity="1.00" d=" M 400.88 453.81 C 405.24 449.78 409.43 445.57 413.89 441.65 C 406.12 451.62 401.55 463.50 397.05 475.18 C 389.69 476.12 385.23 484.55 387.45 491.31 C 390.02 498.28 399.58 500.20 405.46 496.42 C 409.40 493.61 409.59 487.81 407.19 483.92 C 410.89 488.23 409.09 495.60 403.80 497.67 C 398.92 499.30 392.84 498.78 389.26 494.70 C 385.25 490.77 386.34 484.35 388.96 479.97 C 390.71 476.91 394.32 475.90 397.11 474.08 C 398.78 470.28 400.08 466.34 401.78 462.57 C 403.01 459.52 404.68 456.54 404.73 453.17 C 403.77 453.33 401.84 453.65 400.88 453.81 Z" />
<path fill="#a5c897" opacity="1.00" d=" M 174.59 466.92 C 182.26 459.86 189.58 452.40 197.82 445.98 C 198.43 446.45 199.64 447.38 200.25 447.84 C 199.96 448.68 199.38 450.35 199.10 451.18 C 197.94 453.64 196.56 455.98 195.22 458.33 C 196.30 454.85 198.74 451.84 198.83 448.07 C 195.30 447.56 193.40 450.83 190.84 452.58 C 184.97 456.84 180.85 463.13 174.59 466.92 Z" />
<path fill="#a5c897" opacity="1.00" d=" M 8.71 463.06 C 2.58 455.88 12.49 444.42 20.53 448.66 C 24.21 450.45 27.93 448.25 31.45 447.20 C 28.62 448.74 25.60 449.87 22.50 450.72 C 20.81 449.62 19.21 447.90 17.03 448.05 C 11.59 448.16 6.49 453.46 7.34 459.00 C 7.67 460.39 8.18 461.73 8.71 463.06 Z" />
<path fill="#a5c897" opacity="1.00" d=" M 24.03 456.97 C 28.34 455.54 32.65 454.04 37.09 453.04 C 33.96 455.35 31.00 457.88 27.94 460.29 C 27.32 459.49 26.72 458.68 26.13 457.87 C 23.50 458.40 24.96 460.49 25.99 461.80 C 23.36 464.35 20.93 467.11 18.64 469.98 C 16.74 469.42 14.85 468.73 12.86 468.57 C 8.83 469.69 5.77 473.89 6.17 478.08 C 7.92 482.45 13.23 483.24 17.38 483.35 C 17.18 486.27 17.61 489.17 18.78 491.87 C 17.81 489.57 17.33 487.00 15.79 485.00 C 12.65 482.56 7.61 482.37 5.87 478.35 C 4.91 474.23 8.20 470.59 11.43 468.53 C 13.01 466.69 15.23 468.56 17.19 468.33 C 19.01 467.69 21.10 466.40 20.87 464.11 C 17.18 463.78 12.92 467.53 9.81 464.11 C 15.47 465.76 22.32 462.87 24.03 456.97 Z" />
<path fill="#d8d8d8" opacity="1.00" d=" M 87.76 458.93 C 94.71 457.46 101.20 454.40 108.26 453.33 C 108.62 462.96 108.48 472.61 107.77 482.23 C 104.19 483.92 100.30 486.71 100.06 491.04 C 100.13 493.32 100.67 496.27 103.02 497.27 C 106.99 498.50 111.33 498.56 115.27 497.17 C 111.97 498.82 108.18 498.71 104.63 498.19 C 100.58 497.49 98.94 492.58 100.22 489.07 C 101.10 484.31 108.16 483.26 107.60 477.94 C 107.55 471.26 107.72 464.56 107.44 457.89 C 107.61 456.35 106.11 455.48 105.10 454.65 C 100.50 455.00 96.29 457.04 91.91 458.27 C 83.79 460.23 75.74 462.61 68.07 465.94 C 63.63 467.93 59.22 470.04 54.66 471.76 C 65.25 466.45 76.25 461.84 87.76 458.93 Z" />
<path fill="#698265" opacity="1.00" d=" M 13.28 458.79 C 12.69 455.90 14.88 453.59 17.82 454.20 C 18.37 457.19 15.83 458.52 13.28 458.79 Z" />
<path fill="#a5c897" opacity="1.00" d=" M 389.70 463.66 C 393.24 460.74 396.48 457.49 400.01 454.57 C 395.08 460.47 388.76 464.93 382.97 469.93 C 380.04 472.64 377.59 476.14 377.12 480.20 C 377.22 478.47 376.81 476.49 377.92 475.00 C 381.12 470.53 385.64 467.28 389.70 463.66 Z" />
<path fill="#3a3a3a" opacity="0.19" d=" M 128.61 468.36 C 125.79 465.49 124.99 460.82 127.83 457.66 C 126.70 461.20 126.72 465.08 128.61 468.36 Z" />
<path fill="#698265" opacity="1.00" d=" M 134.45 458.64 C 137.81 457.37 141.42 460.59 140.49 464.08 C 139.40 467.91 133.51 467.30 132.10 464.04 C 130.85 462.07 132.51 459.43 134.45 458.64 Z" />
<path fill="#698265" opacity="1.00" d=" M 343.76 458.60 C 345.86 457.95 349.98 457.72 349.60 460.94 C 350.15 464.83 345.76 465.91 342.76 465.73 C 340.67 463.45 341.66 460.42 343.76 458.60 Z" />
<path fill="#a5c897" opacity="1.00" d=" M 189.12 476.10 C 190.65 470.13 191.76 463.83 195.11 458.55 C 191.66 466.64 189.37 475.19 188.61 483.96 C 186.69 487.42 181.47 487.97 180.12 492.06 C 179.59 495.74 179.58 500.71 183.38 502.72 C 190.38 506.88 199.66 497.76 195.90 490.57 C 200.54 497.32 191.19 506.88 184.13 503.50 C 179.35 501.69 178.75 495.50 180.26 491.28 C 181.46 488.12 184.98 487.07 187.16 484.79 C 189.08 482.29 188.30 478.96 189.12 476.10 Z" />
<path fill="#3a3a3a" opacity="0.19" d=" M 141.87 469.60 C 142.76 468.31 143.67 467.04 144.77 465.92 C 146.13 467.56 143.82 470.74 141.87 469.60 Z" />
<path fill="#d8d8d8" opacity="1.00" d=" M 161.77 479.06 C 165.82 475.21 169.74 471.21 173.93 467.52 C 171.07 471.09 167.49 473.98 164.33 477.25 C 162.70 478.67 163.42 481.00 163.51 482.85 C 162.92 481.59 162.35 480.32 161.77 479.06 Z" />
<path fill="#2e362d" opacity="0.92" d=" M 130.32 468.84 C 131.62 468.94 132.30 469.60 132.37 470.82 C 130.80 470.97 130.12 470.31 130.32 468.84 Z" />
<path fill="#d8d8d8" opacity="1.00" d=" M 23.85 473.95 C 26.16 472.70 28.50 471.52 30.75 470.18 C 27.73 472.31 25.40 475.29 22.21 477.19 C 21.20 475.69 22.64 474.45 23.85 473.95 Z" />
<path fill="#2e362d" opacity="0.92" d=" M 132.46 470.82 C 135.49 471.03 138.57 470.95 141.50 470.07 C 139.07 472.36 135.15 473.24 132.46 470.82 Z" />
<path fill="#698265" opacity="1.00" d=" M 358.90 483.31 C 356.02 478.79 358.83 473.47 361.86 469.85 C 359.34 473.86 357.45 478.54 358.90 483.31 Z" />
<path fill="#d8d8d8" opacity="1.00" d=" M 36.08 481.20 C 42.27 478.20 48.19 474.67 54.46 471.85 C 49.23 474.90 43.75 477.50 38.59 480.69 C 38.33 481.21 37.81 482.26 37.55 482.78 C 37.40 483.16 37.09 483.93 36.94 484.32 C 36.66 483.27 36.38 482.23 36.08 481.20 Z" />
<path fill="#698265" opacity="1.00" d=" M 364.78 480.20 C 362.84 476.67 365.58 472.90 369.22 472.24 C 371.63 473.76 372.46 476.75 371.51 479.40 C 369.94 481.34 366.30 483.20 364.78 480.20 Z" />
<path fill="#698265" opacity="1.00" d=" M 13.23 474.34 C 15.02 473.87 17.65 474.71 17.44 476.96 C 18.13 480.31 12.59 480.86 11.56 478.19 C 11.42 476.78 11.65 474.80 13.23 474.34 Z" />
<path fill="#3a3a3a" opacity="0.19" d=" M 359.03 483.96 C 363.84 490.05 373.90 486.88 377.13 480.68 C 376.77 484.96 372.20 486.74 368.63 487.68 C 365.22 488.52 360.43 487.59 359.03 483.96 Z" />
<path fill="#698265" opacity="1.00" d=" M 24.37 482.64 C 26.31 482.00 28.55 482.39 29.97 483.90 C 34.62 487.10 27.36 494.95 23.44 491.41 C 20.51 489.26 21.16 484.20 24.37 482.64 Z" />
<path fill="#698265" opacity="1.00" d=" M 392.53 488.04 C 393.12 485.63 393.87 483.21 395.72 481.45 C 398.77 482.98 402.74 484.99 402.75 488.94 C 403.36 491.65 400.25 492.92 398.04 492.54 C 395.33 492.52 393.30 490.50 392.53 488.04 Z" />
<path fill="#698265" opacity="1.00" d=" M 36.94 484.32 C 37.09 483.93 37.40 483.16 37.55 482.78 C 37.34 485.58 37.78 488.71 36.02 491.14 C 33.11 495.34 27.32 496.50 22.59 495.26 C 26.87 495.75 32.03 495.55 34.86 491.75 C 36.83 489.77 37.11 486.96 36.94 484.32 Z" />
<path fill="#698265" opacity="1.00" d=" M 151.48 484.52 C 152.55 483.59 153.84 482.96 155.05 482.25 C 157.98 483.50 159.25 486.55 158.57 489.59 C 156.21 489.85 153.82 489.83 151.47 489.46 C 151.36 487.82 150.96 486.12 151.48 484.52 Z" />
<path fill="#698265" opacity="1.00" d=" M 163.98 483.87 C 167.02 487.65 164.67 493.21 160.53 495.00 C 162.02 493.43 163.73 491.94 164.58 489.91 C 165.06 487.88 164.35 485.84 163.98 483.87 Z" />
<path fill="#698265" opacity="1.00" d=" M 108.40 488.55 C 109.90 487.87 113.28 486.37 113.59 489.01 C 114.36 491.72 111.05 492.92 108.91 492.56 C 106.80 492.57 106.40 489.08 108.40 488.55 Z" />
<path fill="#698265" opacity="1.00" d=" M 185.38 491.51 C 187.54 489.59 192.24 490.69 191.82 494.07 C 192.26 496.93 189.11 501.05 186.20 498.69 C 183.57 497.59 183.43 493.21 185.38 491.51 Z" />
<path fill="#698265" opacity="1.00" d=" M 0.00 590.44 C 0.13 590.58 0.39 590.86 0.51 591.00 L 0.00 591.00 L 0.00 590.44 Z" />
<path fill="#698265" opacity="1.00" d=" M 590.45 591.00 C 590.58 590.87 590.86 590.61 591.00 590.49 L 591.00 591.00 L 590.45 591.00 Z" />
</svg>
